<svg width="144" height="175" viewBox="0 0 144 175" fill="none" xmlns="http://www.w3.org/2000/svg">
<g filter="url(#filter0_dddddd_223_468)">
<path d="M53.8219 34.1293C55.3418 32.9577 58.4602 31.7183 62.0639 31.2221C65.6536 30.7279 69.5256 30.9994 72.5843 32.6341C74.7795 33.8072 75.7825 34.421 76.5228 34.874C76.8208 35.0563 77.0762 35.2127 77.3497 35.3689C78.3079 35.9164 79.3145 36.3502 82.5944 37.6108C85.1128 38.5788 87.1677 38.8757 89.008 38.6987C90.8444 38.5221 92.383 37.8809 93.8602 37.1111C94.4519 36.8027 95.0343 36.475 95.6265 36.1418C98.0047 34.8036 100.544 33.3749 104.503 32.7395C105.699 32.5475 107.874 32.5379 110.302 32.9576C112.726 33.3766 115.3 34.2064 117.346 35.6174C127.806 42.8314 126.314 55.7768 120.644 60.2792C116.798 63.3336 113.799 66.7304 112.227 71.5696C110.792 75.9865 112.317 79.468 113.915 82.682C114.037 82.9274 114.16 83.1711 114.281 83.4135C115.782 86.4028 117.19 89.2094 116.917 92.7583C116.765 94.7225 115.498 97.6405 112.541 100.079C108.795 103.17 105.144 103.02 100.86 102.091C99.9501 101.893 99.005 101.657 98.0254 101.413C94.4426 100.517 90.3979 99.5068 85.9092 99.8538C79.7247 100.332 75.6501 104.308 72.0357 107.836C71.7634 108.101 71.4937 108.364 71.2259 108.623C67.3118 112.408 63.8128 115.32 58.3246 114.072C55.1947 113.36 53.3393 111.898 52.1145 109.998C50.8553 108.045 50.2176 105.564 49.687 102.726C49.5528 102.008 49.4263 101.267 49.2973 100.51C48.4315 95.4347 47.4446 89.6497 43.1697 85.3237C41.7673 83.9046 40.2109 82.6309 38.7267 81.4164C38.0516 80.8639 37.3914 80.3237 36.7675 79.7875C34.7247 78.0322 32.9614 76.2415 31.8048 73.9404C30.7197 71.7817 30.8057 69.7071 31.6225 67.6949C32.4551 65.6435 34.0506 63.6597 35.9743 61.8103C37.8902 59.9685 40.0706 58.3168 42.0073 56.9112C42.4123 56.6173 42.8116 56.3308 43.1978 56.0538C44.6084 55.0419 45.845 54.1548 46.553 53.4817C48.3169 51.8048 49.2817 50.3418 49.7627 48.564C50.2166 46.8858 50.2165 44.9827 50.2164 42.5427L50.2164 42.4235C50.2164 39.1386 50.8306 37.3535 51.5128 36.2846C52.0708 35.4104 52.6881 34.9613 53.336 34.4899C53.4963 34.3733 53.6584 34.2554 53.8219 34.1293Z" fill="white"/>
<path d="M53.8219 34.1293C55.3418 32.9577 58.4602 31.7183 62.0639 31.2221C65.6536 30.7279 69.5256 30.9994 72.5843 32.6341C74.7795 33.8072 75.7825 34.421 76.5228 34.874C76.8208 35.0563 77.0762 35.2127 77.3497 35.3689C78.3079 35.9164 79.3145 36.3502 82.5944 37.6108C85.1128 38.5788 87.1677 38.8757 89.008 38.6987C90.8444 38.5221 92.383 37.8809 93.8602 37.1111C94.4519 36.8027 95.0343 36.475 95.6265 36.1418C98.0047 34.8036 100.544 33.3749 104.503 32.7395C105.699 32.5475 107.874 32.5379 110.302 32.9576C112.726 33.3766 115.3 34.2064 117.346 35.6174C127.806 42.8314 126.314 55.7768 120.644 60.2792C116.798 63.3336 113.799 66.7304 112.227 71.5696C110.792 75.9865 112.317 79.468 113.915 82.682C114.037 82.9274 114.16 83.1711 114.281 83.4135C115.782 86.4028 117.19 89.2094 116.917 92.7583C116.765 94.7225 115.498 97.6405 112.541 100.079C108.795 103.17 105.144 103.02 100.86 102.091C99.9501 101.893 99.005 101.657 98.0254 101.413C94.4426 100.517 90.3979 99.5068 85.9092 99.8538C79.7247 100.332 75.6501 104.308 72.0357 107.836C71.7634 108.101 71.4937 108.364 71.2259 108.623C67.3118 112.408 63.8128 115.32 58.3246 114.072C55.1947 113.36 53.3393 111.898 52.1145 109.998C50.8553 108.045 50.2176 105.564 49.687 102.726C49.5528 102.008 49.4263 101.267 49.2973 100.51C48.4315 95.4347 47.4446 89.6497 43.1697 85.3237C41.7673 83.9046 40.2109 82.6309 38.7267 81.4164C38.0516 80.8639 37.3914 80.3237 36.7675 79.7875C34.7247 78.0322 32.9614 76.2415 31.8048 73.9404C30.7197 71.7817 30.8057 69.7071 31.6225 67.6949C32.4551 65.6435 34.0506 63.6597 35.9743 61.8103C37.8902 59.9685 40.0706 58.3168 42.0073 56.9112C42.4123 56.6173 42.8116 56.3308 43.1978 56.0538C44.6084 55.0419 45.845 54.1548 46.553 53.4817C48.3169 51.8048 49.2817 50.3418 49.7627 48.564C50.2166 46.8858 50.2165 44.9827 50.2164 42.5427L50.2164 42.4235C50.2164 39.1386 50.8306 37.3535 51.5128 36.2846C52.0708 35.4104 52.6881 34.9613 53.336 34.4899C53.4963 34.3733 53.6584 34.2554 53.8219 34.1293Z" fill="url(#paint0_radial_223_468)" fill-opacity="0.4"/>
<path d="M53.8219 34.1293C55.3418 32.9577 58.4602 31.7183 62.0639 31.2221C65.6536 30.7279 69.5256 30.9994 72.5843 32.6341C74.7795 33.8072 75.7825 34.421 76.5228 34.874C76.8208 35.0563 77.0762 35.2127 77.3497 35.3689C78.3079 35.9164 79.3145 36.3502 82.5944 37.6108C85.1128 38.5788 87.1677 38.8757 89.008 38.6987C90.8444 38.5221 92.383 37.8809 93.8602 37.1111C94.4519 36.8027 95.0343 36.475 95.6265 36.1418C98.0047 34.8036 100.544 33.3749 104.503 32.7395C105.699 32.5475 107.874 32.5379 110.302 32.9576C112.726 33.3766 115.3 34.2064 117.346 35.6174C127.806 42.8314 126.314 55.7768 120.644 60.2792C116.798 63.3336 113.799 66.7304 112.227 71.5696C110.792 75.9865 112.317 79.468 113.915 82.682C114.037 82.9274 114.16 83.1711 114.281 83.4135C115.782 86.4028 117.19 89.2094 116.917 92.7583C116.765 94.7225 115.498 97.6405 112.541 100.079C108.795 103.17 105.144 103.02 100.86 102.091C99.9501 101.893 99.005 101.657 98.0254 101.413C94.4426 100.517 90.3979 99.5068 85.9092 99.8538C79.7247 100.332 75.6501 104.308 72.0357 107.836C71.7634 108.101 71.4937 108.364 71.2259 108.623C67.3118 112.408 63.8128 115.32 58.3246 114.072C55.1947 113.36 53.3393 111.898 52.1145 109.998C50.8553 108.045 50.2176 105.564 49.687 102.726C49.5528 102.008 49.4263 101.267 49.2973 100.51C48.4315 95.4347 47.4446 89.6497 43.1697 85.3237C41.7673 83.9046 40.2109 82.6309 38.7267 81.4164C38.0516 80.8639 37.3914 80.3237 36.7675 79.7875C34.7247 78.0322 32.9614 76.2415 31.8048 73.9404C30.7197 71.7817 30.8057 69.7071 31.6225 67.6949C32.4551 65.6435 34.0506 63.6597 35.9743 61.8103C37.8902 59.9685 40.0706 58.3168 42.0073 56.9112C42.4123 56.6173 42.8116 56.3308 43.1978 56.0538C44.6084 55.0419 45.845 54.1548 46.553 53.4817C48.3169 51.8048 49.2817 50.3418 49.7627 48.564C50.2166 46.8858 50.2165 44.9827 50.2164 42.5427L50.2164 42.4235C50.2164 39.1386 50.8306 37.3535 51.5128 36.2846C52.0708 35.4104 52.6881 34.9613 53.336 34.4899C53.4963 34.3733 53.6584 34.2554 53.8219 34.1293Z" fill="url(#paint1_radial_223_468)" fill-opacity="0.4"/>
<path d="M53.8219 34.1293C55.3418 32.9577 58.4602 31.7183 62.0639 31.2221C65.6536 30.7279 69.5256 30.9994 72.5843 32.6341C74.7795 33.8072 75.7825 34.421 76.5228 34.874C76.8208 35.0563 77.0762 35.2127 77.3497 35.3689C78.3079 35.9164 79.3145 36.3502 82.5944 37.6108C85.1128 38.5788 87.1677 38.8757 89.008 38.6987C90.8444 38.5221 92.383 37.8809 93.8602 37.1111C94.4519 36.8027 95.0343 36.475 95.6265 36.1418C98.0047 34.8036 100.544 33.3749 104.503 32.7395C105.699 32.5475 107.874 32.5379 110.302 32.9576C112.726 33.3766 115.3 34.2064 117.346 35.6174C127.806 42.8314 126.314 55.7768 120.644 60.2792C116.798 63.3336 113.799 66.7304 112.227 71.5696C110.792 75.9865 112.317 79.468 113.915 82.682C114.037 82.9274 114.16 83.1711 114.281 83.4135C115.782 86.4028 117.19 89.2094 116.917 92.7583C116.765 94.7225 115.498 97.6405 112.541 100.079C108.795 103.17 105.144 103.02 100.86 102.091C99.9501 101.893 99.005 101.657 98.0254 101.413C94.4426 100.517 90.3979 99.5068 85.9092 99.8538C79.7247 100.332 75.6501 104.308 72.0357 107.836C71.7634 108.101 71.4937 108.364 71.2259 108.623C67.3118 112.408 63.8128 115.32 58.3246 114.072C55.1947 113.36 53.3393 111.898 52.1145 109.998C50.8553 108.045 50.2176 105.564 49.687 102.726C49.5528 102.008 49.4263 101.267 49.2973 100.51C48.4315 95.4347 47.4446 89.6497 43.1697 85.3237C41.7673 83.9046 40.2109 82.6309 38.7267 81.4164C38.0516 80.8639 37.3914 80.3237 36.7675 79.7875C34.7247 78.0322 32.9614 76.2415 31.8048 73.9404C30.7197 71.7817 30.8057 69.7071 31.6225 67.6949C32.4551 65.6435 34.0506 63.6597 35.9743 61.8103C37.8902 59.9685 40.0706 58.3168 42.0073 56.9112C42.4123 56.6173 42.8116 56.3308 43.1978 56.0538C44.6084 55.0419 45.845 54.1548 46.553 53.4817C48.3169 51.8048 49.2817 50.3418 49.7627 48.564C50.2166 46.8858 50.2165 44.9827 50.2164 42.5427L50.2164 42.4235C50.2164 39.1386 50.8306 37.3535 51.5128 36.2846C52.0708 35.4104 52.6881 34.9613 53.336 34.4899C53.4963 34.3733 53.6584 34.2554 53.8219 34.1293Z" fill="url(#paint2_radial_223_468)" fill-opacity="0.4"/>
<path d="M53.8219 34.1293C55.3418 32.9577 58.4602 31.7183 62.0639 31.2221C65.6536 30.7279 69.5256 30.9994 72.5843 32.6341C74.7795 33.8072 75.7825 34.421 76.5228 34.874C76.8208 35.0563 77.0762 35.2127 77.3497 35.3689C78.3079 35.9164 79.3145 36.3502 82.5944 37.6108C85.1128 38.5788 87.1677 38.8757 89.008 38.6987C90.8444 38.5221 92.383 37.8809 93.8602 37.1111C94.4519 36.8027 95.0343 36.475 95.6265 36.1418C98.0047 34.8036 100.544 33.3749 104.503 32.7395C105.699 32.5475 107.874 32.5379 110.302 32.9576C112.726 33.3766 115.3 34.2064 117.346 35.6174C127.806 42.8314 126.314 55.7768 120.644 60.2792C116.798 63.3336 113.799 66.7304 112.227 71.5696C110.792 75.9865 112.317 79.468 113.915 82.682C114.037 82.9274 114.16 83.1711 114.281 83.4135C115.782 86.4028 117.19 89.2094 116.917 92.7583C116.765 94.7225 115.498 97.6405 112.541 100.079C108.795 103.17 105.144 103.02 100.86 102.091C99.9501 101.893 99.005 101.657 98.0254 101.413C94.4426 100.517 90.3979 99.5068 85.9092 99.8538C79.7247 100.332 75.6501 104.308 72.0357 107.836C71.7634 108.101 71.4937 108.364 71.2259 108.623C67.3118 112.408 63.8128 115.32 58.3246 114.072C55.1947 113.36 53.3393 111.898 52.1145 109.998C50.8553 108.045 50.2176 105.564 49.687 102.726C49.5528 102.008 49.4263 101.267 49.2973 100.51C48.4315 95.4347 47.4446 89.6497 43.1697 85.3237C41.7673 83.9046 40.2109 82.6309 38.7267 81.4164C38.0516 80.8639 37.3914 80.3237 36.7675 79.7875C34.7247 78.0322 32.9614 76.2415 31.8048 73.9404C30.7197 71.7817 30.8057 69.7071 31.6225 67.6949C32.4551 65.6435 34.0506 63.6597 35.9743 61.8103C37.8902 59.9685 40.0706 58.3168 42.0073 56.9112C42.4123 56.6173 42.8116 56.3308 43.1978 56.0538C44.6084 55.0419 45.845 54.1548 46.553 53.4817C48.3169 51.8048 49.2817 50.3418 49.7627 48.564C50.2166 46.8858 50.2165 44.9827 50.2164 42.5427L50.2164 42.4235C50.2164 39.1386 50.8306 37.3535 51.5128 36.2846C52.0708 35.4104 52.6881 34.9613 53.336 34.4899C53.4963 34.3733 53.6584 34.2554 53.8219 34.1293Z" fill="url(#paint3_radial_223_468)" fill-opacity="0.4"/>
<path d="M53.8219 34.1293C55.3418 32.9577 58.4602 31.7183 62.0639 31.2221C65.6536 30.7279 69.5256 30.9994 72.5843 32.6341C74.7795 33.8072 75.7825 34.421 76.5228 34.874C76.8208 35.0563 77.0762 35.2127 77.3497 35.3689C78.3079 35.9164 79.3145 36.3502 82.5944 37.6108C85.1128 38.5788 87.1677 38.8757 89.008 38.6987C90.8444 38.5221 92.383 37.8809 93.8602 37.1111C94.4519 36.8027 95.0343 36.475 95.6265 36.1418C98.0047 34.8036 100.544 33.3749 104.503 32.7395C105.699 32.5475 107.874 32.5379 110.302 32.9576C112.726 33.3766 115.3 34.2064 117.346 35.6174C127.806 42.8314 126.314 55.7768 120.644 60.2792C116.798 63.3336 113.799 66.7304 112.227 71.5696C110.792 75.9865 112.317 79.468 113.915 82.682C114.037 82.9274 114.16 83.1711 114.281 83.4135C115.782 86.4028 117.19 89.2094 116.917 92.7583C116.765 94.7225 115.498 97.6405 112.541 100.079C108.795 103.17 105.144 103.02 100.86 102.091C99.9501 101.893 99.005 101.657 98.0254 101.413C94.4426 100.517 90.3979 99.5068 85.9092 99.8538C79.7247 100.332 75.6501 104.308 72.0357 107.836C71.7634 108.101 71.4937 108.364 71.2259 108.623C67.3118 112.408 63.8128 115.32 58.3246 114.072C55.1947 113.36 53.3393 111.898 52.1145 109.998C50.8553 108.045 50.2176 105.564 49.687 102.726C49.5528 102.008 49.4263 101.267 49.2973 100.51C48.4315 95.4347 47.4446 89.6497 43.1697 85.3237C41.7673 83.9046 40.2109 82.6309 38.7267 81.4164C38.0516 80.8639 37.3914 80.3237 36.7675 79.7875C34.7247 78.0322 32.9614 76.2415 31.8048 73.9404C30.7197 71.7817 30.8057 69.7071 31.6225 67.6949C32.4551 65.6435 34.0506 63.6597 35.9743 61.8103C37.8902 59.9685 40.0706 58.3168 42.0073 56.9112C42.4123 56.6173 42.8116 56.3308 43.1978 56.0538C44.6084 55.0419 45.845 54.1548 46.553 53.4817C48.3169 51.8048 49.2817 50.3418 49.7627 48.564C50.2166 46.8858 50.2165 44.9827 50.2164 42.5427L50.2164 42.4235C50.2164 39.1386 50.8306 37.3535 51.5128 36.2846C52.0708 35.4104 52.6881 34.9613 53.336 34.4899C53.4963 34.3733 53.6584 34.2554 53.8219 34.1293Z" fill="url(#paint4_radial_223_468)" fill-opacity="0.4"/>
<path d="M53.8219 34.1293C55.3418 32.9577 58.4602 31.7183 62.0639 31.2221C65.6536 30.7279 69.5256 30.9994 72.5843 32.6341C74.7795 33.8072 75.7825 34.421 76.5228 34.874C76.8208 35.0563 77.0762 35.2127 77.3497 35.3689C78.3079 35.9164 79.3145 36.3502 82.5944 37.6108C85.1128 38.5788 87.1677 38.8757 89.008 38.6987C90.8444 38.5221 92.383 37.8809 93.8602 37.1111C94.4519 36.8027 95.0343 36.475 95.6265 36.1418C98.0047 34.8036 100.544 33.3749 104.503 32.7395C105.699 32.5475 107.874 32.5379 110.302 32.9576C112.726 33.3766 115.3 34.2064 117.346 35.6174C127.806 42.8314 126.314 55.7768 120.644 60.2792C116.798 63.3336 113.799 66.7304 112.227 71.5696C110.792 75.9865 112.317 79.468 113.915 82.682C114.037 82.9274 114.16 83.1711 114.281 83.4135C115.782 86.4028 117.19 89.2094 116.917 92.7583C116.765 94.7225 115.498 97.6405 112.541 100.079C108.795 103.17 105.144 103.02 100.86 102.091C99.9501 101.893 99.005 101.657 98.0254 101.413C94.4426 100.517 90.3979 99.5068 85.9092 99.8538C79.7247 100.332 75.6501 104.308 72.0357 107.836C71.7634 108.101 71.4937 108.364 71.2259 108.623C67.3118 112.408 63.8128 115.32 58.3246 114.072C55.1947 113.36 53.3393 111.898 52.1145 109.998C50.8553 108.045 50.2176 105.564 49.687 102.726C49.5528 102.008 49.4263 101.267 49.2973 100.51C48.4315 95.4347 47.4446 89.6497 43.1697 85.3237C41.7673 83.9046 40.2109 82.6309 38.7267 81.4164C38.0516 80.8639 37.3914 80.3237 36.7675 79.7875C34.7247 78.0322 32.9614 76.2415 31.8048 73.9404C30.7197 71.7817 30.8057 69.7071 31.6225 67.6949C32.4551 65.6435 34.0506 63.6597 35.9743 61.8103C37.8902 59.9685 40.0706 58.3168 42.0073 56.9112C42.4123 56.6173 42.8116 56.3308 43.1978 56.0538C44.6084 55.0419 45.845 54.1548 46.553 53.4817C48.3169 51.8048 49.2817 50.3418 49.7627 48.564C50.2166 46.8858 50.2165 44.9827 50.2164 42.5427L50.2164 42.4235C50.2164 39.1386 50.8306 37.3535 51.5128 36.2846C52.0708 35.4104 52.6881 34.9613 53.336 34.4899C53.4963 34.3733 53.6584 34.2554 53.8219 34.1293Z" fill="url(#paint5_radial_223_468)" fill-opacity="0.3"/>
<path d="M53.8219 34.1293C55.3418 32.9577 58.4602 31.7183 62.0639 31.2221C65.6536 30.7279 69.5256 30.9994 72.5843 32.6341C74.7795 33.8072 75.7825 34.421 76.5228 34.874C76.8208 35.0563 77.0762 35.2127 77.3497 35.3689C78.3079 35.9164 79.3145 36.3502 82.5944 37.6108C85.1128 38.5788 87.1677 38.8757 89.008 38.6987C90.8444 38.5221 92.383 37.8809 93.8602 37.1111C94.4519 36.8027 95.0343 36.475 95.6265 36.1418C98.0047 34.8036 100.544 33.3749 104.503 32.7395C105.699 32.5475 107.874 32.5379 110.302 32.9576C112.726 33.3766 115.3 34.2064 117.346 35.6174C127.806 42.8314 126.314 55.7768 120.644 60.2792C116.798 63.3336 113.799 66.7304 112.227 71.5696C110.792 75.9865 112.317 79.468 113.915 82.682C114.037 82.9274 114.16 83.1711 114.281 83.4135C115.782 86.4028 117.19 89.2094 116.917 92.7583C116.765 94.7225 115.498 97.6405 112.541 100.079C108.795 103.17 105.144 103.02 100.86 102.091C99.9501 101.893 99.005 101.657 98.0254 101.413C94.4426 100.517 90.3979 99.5068 85.9092 99.8538C79.7247 100.332 75.6501 104.308 72.0357 107.836C71.7634 108.101 71.4937 108.364 71.2259 108.623C67.3118 112.408 63.8128 115.32 58.3246 114.072C55.1947 113.36 53.3393 111.898 52.1145 109.998C50.8553 108.045 50.2176 105.564 49.687 102.726C49.5528 102.008 49.4263 101.267 49.2973 100.51C48.4315 95.4347 47.4446 89.6497 43.1697 85.3237C41.7673 83.9046 40.2109 82.6309 38.7267 81.4164C38.0516 80.8639 37.3914 80.3237 36.7675 79.7875C34.7247 78.0322 32.9614 76.2415 31.8048 73.9404C30.7197 71.7817 30.8057 69.7071 31.6225 67.6949C32.4551 65.6435 34.0506 63.6597 35.9743 61.8103C37.8902 59.9685 40.0706 58.3168 42.0073 56.9112C42.4123 56.6173 42.8116 56.3308 43.1978 56.0538C44.6084 55.0419 45.845 54.1548 46.553 53.4817C48.3169 51.8048 49.2817 50.3418 49.7627 48.564C50.2166 46.8858 50.2165 44.9827 50.2164 42.5427L50.2164 42.4235C50.2164 39.1386 50.8306 37.3535 51.5128 36.2846C52.0708 35.4104 52.6881 34.9613 53.336 34.4899C53.4963 34.3733 53.6584 34.2554 53.8219 34.1293Z" stroke="#200824" stroke-width="2" style="mix-blend-mode:multiply"/>
<path d="M71.6486 66L69.4786 47.59L69.1636 47.485L67.6236 42.9H72.4886L74.3436 59.49H74.4486L82.6736 42.97H87.3636L83.1986 47.8L73.8886 66H71.6486ZM60.0286 66.805C59.3053 66.805 58.722 66.6067 58.2786 66.21C57.8586 65.8367 57.6486 65.3817 57.6486 64.845C57.6486 64.5883 57.6836 64.39 57.7536 64.25C58.5236 64.2267 59.212 64.0517 59.8186 63.725C60.4253 63.3983 60.9853 62.8967 61.4986 62.22C62.0353 61.52 62.537 60.6217 63.0036 59.525C63.4936 58.405 63.972 57.0633 64.4386 55.5C64.9286 53.9367 65.4303 52.105 65.9436 50.005C66.4803 47.905 67.0753 45.5367 67.7286 42.9L69.8636 45.42C69.047 49.2933 68.2653 52.525 67.5186 55.115C66.7953 57.705 66.0953 59.7817 65.4186 61.345C64.742 62.9083 64.1003 64.075 63.4936 64.845C62.887 65.615 62.292 66.1283 61.7086 66.385C61.1486 66.665 60.5886 66.805 60.0286 66.805ZM59.7486 52.42C59.072 52.42 58.4886 52.2683 57.9986 51.965C57.5086 51.6383 57.1353 51.1833 56.8786 50.6C56.6453 49.9933 56.5286 49.2933 56.5286 48.5C56.5286 47.6833 56.692 46.8783 57.0186 46.085C57.3453 45.2917 57.8353 44.58 58.4886 43.95C59.142 43.2967 59.947 42.7833 60.9036 42.41C61.8836 42.0133 63.0386 41.815 64.3686 41.815C65.372 41.815 66.3053 41.8967 67.1686 42.06C68.0553 42.2233 68.9186 42.3983 69.7586 42.585C70.5986 42.7483 71.4736 42.8533 72.3836 42.9L70.4236 44.86L67.4486 44.23L67.2736 43.915C66.597 43.7283 65.8386 43.635 64.9986 43.635C63.622 43.635 62.537 44.055 61.7436 44.895C60.9503 45.735 60.542 46.96 60.5186 48.57C60.5186 49.1767 60.5886 49.76 60.7286 50.32C60.8686 50.88 61.067 51.44 61.3236 52C61.067 52.1633 60.7986 52.28 60.5186 52.35C60.262 52.3967 60.0053 52.42 59.7486 52.42ZM84.2486 71.53C83.8053 71.53 83.397 71.425 83.0236 71.215C82.6736 71.005 82.3703 70.655 82.1136 70.165C81.8803 69.6983 81.6936 69.0567 81.5536 68.24C81.437 67.4467 81.3903 66.4783 81.4136 65.335C81.4136 64.1683 81.472 62.6983 81.5886 60.925C81.7053 59.1517 81.9036 57.1217 82.1836 54.835C82.487 52.525 82.907 50.0167 83.4436 47.31L83.2686 47.1L82.7086 42.97H87.6086C87.3753 44.2767 87.1186 45.7467 86.8386 47.38C86.5586 49.0133 86.2903 50.705 86.0336 52.455C85.777 54.205 85.567 55.9317 85.4036 57.635C85.2403 59.3383 85.1586 60.925 85.1586 62.395C85.1353 64.2617 85.252 65.8483 85.5086 67.155C85.7653 68.4617 86.1736 69.4183 86.7336 70.025C86.617 70.305 86.4303 70.5617 86.1736 70.795C85.917 71.0283 85.6253 71.2033 85.2986 71.32C84.972 71.46 84.622 71.53 84.2486 71.53ZM93.1829 95.245L97.2779 73.23C97.4413 72.4367 97.6629 71.795 97.9429 71.305C98.2463 70.7917 98.6313 70.4183 99.0979 70.185C99.5879 69.9283 100.171 69.8 100.848 69.8C101.291 69.8 101.7 69.87 102.073 70.01C102.47 70.15 102.726 70.3833 102.843 70.71C102.54 70.9667 102.271 71.2817 102.038 71.655C101.828 72.0283 101.641 72.495 101.478 73.055C101.338 73.5917 101.186 74.245 101.023 75.015L97.3129 94.755L93.1829 95.245ZM82.2629 96.715C81.8196 96.715 81.3996 96.6333 81.0029 96.47C80.6063 96.3067 80.3496 96.085 80.2329 95.805C80.5129 95.6183 80.7579 95.385 80.9679 95.105C81.1779 94.825 81.3529 94.475 81.4929 94.055C81.6563 93.6117 81.7963 93.075 81.9129 92.445L84.8179 76.94C85.0279 75.8433 85.3429 74.9333 85.7629 74.21C86.1829 73.4867 86.7429 72.9383 87.4429 72.565C88.1429 72.1683 88.9946 71.9467 89.9979 71.9L85.8329 93.215C85.6696 94.0317 85.4363 94.6967 85.1329 95.21C84.8529 95.7467 84.4796 96.1317 84.0129 96.365C83.5463 96.5983 82.9629 96.715 82.2629 96.715ZM79.2529 81.35C78.5529 81.35 77.9463 81.1867 77.4329 80.86C76.9429 80.51 76.5579 80.0317 76.2779 79.425C75.9979 78.8183 75.8579 78.1067 75.8579 77.29C75.8579 76.17 76.1263 75.085 76.6629 74.035C77.2229 72.9617 78.0629 72.0867 79.1829 71.41C80.3029 70.7333 81.7263 70.395 83.4529 70.395C84.1763 70.395 84.8296 70.465 85.4129 70.605C86.0196 70.7217 86.5796 70.885 87.0929 71.095C87.6296 71.2817 88.1313 71.4567 88.5979 71.62C89.0646 71.76 89.5196 71.8533 89.9629 71.9L86.8479 72.985L86.7779 72.88C86.6379 72.7867 86.3929 72.6583 86.0429 72.495C85.6929 72.3317 85.1096 72.25 84.2929 72.25C82.8929 72.25 81.7963 72.6817 81.0029 73.545C80.2329 74.4083 79.8479 75.61 79.8479 77.15C79.8479 77.8033 79.9296 78.445 80.0929 79.075C80.2563 79.705 80.5013 80.3233 80.8279 80.93C80.5946 81.07 80.3379 81.175 80.0579 81.245C79.8013 81.315 79.5329 81.35 79.2529 81.35ZM86.3229 84.85L86.7429 82.4H96.9629L96.5079 84.85H86.3229Z" fill="#200824" style="mix-blend-mode:multiply"/>
</g>
<defs>
<filter id="filter0_dddddd_223_468" x="0" y="0" width="143.063" height="174.365" filterUnits="userSpaceOnUse" color-interpolation-filters="sRGB">
<feFlood flood-opacity="0" result="BackgroundImageFix"/>
<feColorMatrix in="SourceAlpha" type="matrix" values="0 0 0 0 0 0 0 0 0 0 0 0 0 0 0 0 0 0 127 0" result="hardAlpha"/>
<feOffset/>
<feColorMatrix type="matrix" values="0 0 0 0 0 0 0 0 0 0 0 0 0 0 0 0 0 0 0.1 0"/>
<feBlend mode="normal" in2="BackgroundImageFix" result="effect1_dropShadow_223_468"/>
<feColorMatrix in="SourceAlpha" type="matrix" values="0 0 0 0 0 0 0 0 0 0 0 0 0 0 0 0 0 0 127 0" result="hardAlpha"/>
<feOffset dy="3"/>
<feGaussianBlur stdDeviation="3"/>
<feColorMatrix type="matrix" values="0 0 0 0 0 0 0 0 0 0 0 0 0 0 0 0 0 0 0.1 0"/>
<feBlend mode="normal" in2="effect1_dropShadow_223_468" result="effect2_dropShadow_223_468"/>
<feColorMatrix in="SourceAlpha" type="matrix" values="0 0 0 0 0 0 0 0 0 0 0 0 0 0 0 0 0 0 127 0" result="hardAlpha"/>
<feOffset dy="11"/>
<feGaussianBlur stdDeviation="5.5"/>
<feColorMatrix type="matrix" values="0 0 0 0 0 0 0 0 0 0 0 0 0 0 0 0 0 0 0.09 0"/>
<feBlend mode="normal" in2="effect2_dropShadow_223_468" result="effect3_dropShadow_223_468"/>
<feColorMatrix in="SourceAlpha" type="matrix" values="0 0 0 0 0 0 0 0 0 0 0 0 0 0 0 0 0 0 127 0" result="hardAlpha"/>
<feOffset dy="24"/>
<feGaussianBlur stdDeviation="7"/>
<feColorMatrix type="matrix" values="0 0 0 0 0 0 0 0 0 0 0 0 0 0 0 0 0 0 0.05 0"/>
<feBlend mode="normal" in2="effect3_dropShadow_223_468" result="effect4_dropShadow_223_468"/>
<feColorMatrix in="SourceAlpha" type="matrix" values="0 0 0 0 0 0 0 0 0 0 0 0 0 0 0 0 0 0 127 0" result="hardAlpha"/>
<feOffset dy="42"/>
<feGaussianBlur stdDeviation="8.5"/>
<feColorMatrix type="matrix" values="0 0 0 0 0 0 0 0 0 0 0 0 0 0 0 0 0 0 0.01 0"/>
<feBlend mode="normal" in2="effect4_dropShadow_223_468" result="effect5_dropShadow_223_468"/>
<feColorMatrix in="SourceAlpha" type="matrix" values="0 0 0 0 0 0 0 0 0 0 0 0 0 0 0 0 0 0 127 0" result="hardAlpha"/>
<feOffset dx="-10" dy="-10"/>
<feGaussianBlur stdDeviation="10"/>
<feComposite in2="hardAlpha" operator="out"/>
<feColorMatrix type="matrix" values="0 0 0 0 1 0 0 0 0 1 0 0 0 0 1 0 0 0 0.5 0"/>
<feBlend mode="normal" in2="effect5_dropShadow_223_468" result="effect6_dropShadow_223_468"/>
<feBlend mode="normal" in="SourceGraphic" in2="effect6_dropShadow_223_468" result="shape"/>
</filter>
<radialGradient id="paint0_radial_223_468" cx="0" cy="0" r="1" gradientUnits="userSpaceOnUse" gradientTransform="translate(30 63.506) rotate(-0.54207) scale(45.1156 71.8254)">
<stop stop-color="#91BECA"/>
<stop offset="1" stop-color="#91BECA" stop-opacity="0"/>
</radialGradient>
<radialGradient id="paint1_radial_223_468" cx="0" cy="0" r="1" gradientUnits="userSpaceOnUse" gradientTransform="translate(70.4513 52.1417) rotate(83.163) scale(63.6767 41.6245)">
<stop stop-color="#A67ABE"/>
<stop offset="1" stop-color="#A67ABE" stop-opacity="0"/>
</radialGradient>
<radialGradient id="paint2_radial_223_468" cx="0" cy="0" r="1" gradientUnits="userSpaceOnUse" gradientTransform="translate(92.0186 55.0228) rotate(89.9363) scale(60.3428 35.8411)">
<stop stop-color="#FD747C"/>
<stop offset="1" stop-color="#FD747C" stop-opacity="0"/>
</radialGradient>
<radialGradient id="paint3_radial_223_468" cx="0" cy="0" r="1" gradientUnits="userSpaceOnUse" gradientTransform="translate(118.886 51.5014) rotate(86.314) scale(45.391 32.4483)">
<stop stop-color="#FFE072"/>
<stop offset="1" stop-color="#FFE072" stop-opacity="0"/>
</radialGradient>
<radialGradient id="paint4_radial_223_468" cx="0" cy="0" r="1" gradientUnits="userSpaceOnUse" gradientTransform="translate(126.063 115.366) rotate(-167.717) scale(49.1569 66.3484)">
<stop stop-color="#FFB472"/>
<stop offset="0.411458" stop-color="#FFB472"/>
<stop offset="1" stop-color="#FFB472" stop-opacity="0"/>
</radialGradient>
<radialGradient id="paint5_radial_223_468" cx="0" cy="0" r="1" gradientUnits="userSpaceOnUse" gradientTransform="translate(65.9567 115.366) rotate(-118.198) scale(76.0963 95.0466)">
<stop stop-color="#B5BD9D"/>
<stop offset="0.489583" stop-color="#B5BD9D"/>
<stop offset="1" stop-color="#B5BD9D" stop-opacity="0"/>
</radialGradient>
</defs>
</svg>
