<svg width="103" height="139" viewBox="0 0 103 139" fill="none" xmlns="http://www.w3.org/2000/svg">
<g filter="url(#filter0_dddddd_312_503)">
<path d="M44.0639 32.7263C44.8672 32.1071 46.5963 31.4065 48.6417 31.1248C50.6731 30.8451 52.8177 31.0071 54.4838 31.8975C55.745 32.5715 56.3072 32.9156 56.7343 33.177C56.9112 33.2853 57.0649 33.3794 57.2355 33.4769C57.8235 33.8128 58.4375 34.0751 60.333 34.8037C61.8385 35.3823 63.0956 35.5704 64.2415 35.4603C65.3833 35.3505 66.3307 34.9515 67.2078 34.4944C67.5668 34.3074 67.9145 34.1119 68.2639 33.9155C69.6355 33.1445 71.0342 32.3583 73.2488 32.0029C73.8857 31.9007 75.0984 31.8911 76.4719 32.1285C77.8409 32.3652 79.2685 32.8303 80.3874 33.602C86.2291 37.6308 85.3306 44.7953 82.2763 47.2207C80.009 49.0211 78.2045 51.0533 77.2591 53.964C76.3715 56.6964 77.3307 58.8514 78.2611 60.7219C78.3297 60.8596 78.3979 60.9958 78.4654 61.1306C79.3428 62.8813 80.1072 64.4067 79.9581 66.3426C79.8802 67.3525 79.2111 68.9431 77.5737 70.294C75.5512 71.9627 73.597 71.9018 71.1599 71.3732C70.6545 71.2636 70.1219 71.1304 69.5643 70.9908C67.4821 70.4699 65.0501 69.8613 62.3727 70.0683C58.6294 70.3577 56.1615 72.7692 54.0823 74.8008C53.9201 74.9593 53.7603 75.1155 53.6024 75.2681C51.3286 77.467 49.4526 78.9874 46.5102 78.3185C44.7977 77.9291 43.8183 77.1433 43.171 76.1393C42.4892 75.082 42.1306 73.7158 41.8239 72.0748C41.7481 71.6694 41.6764 71.2468 41.6025 70.8117C41.1048 67.8789 40.5109 64.3798 37.9322 61.7703C37.1035 60.9317 36.1707 60.1682 35.3023 59.4574C34.916 59.1412 34.5424 58.8355 34.1964 58.5382C33.0255 57.532 32.0543 56.5377 31.4217 55.2792C30.8549 54.1515 30.8952 53.0772 31.3299 52.0062C31.7805 50.896 32.6576 49.7945 33.7541 48.7404C34.8427 47.6939 36.087 46.7504 37.2064 45.9381C37.4314 45.7747 37.6562 45.6135 37.876 45.4559C38.6981 44.8663 39.4502 44.327 39.8838 43.9148C40.9431 42.9078 41.5556 41.9961 41.8603 40.8695C42.1382 39.8421 42.1381 38.6888 42.1379 37.3089C42.1379 37.273 42.1379 37.2369 42.1379 37.2007C42.1379 35.3469 42.4847 34.3993 42.8233 33.8687C43.1009 33.4337 43.3886 33.2237 43.7526 32.958C43.8504 32.8866 43.9538 32.8112 44.0639 32.7263Z" fill="white"/>
<path d="M44.0639 32.7263C44.8672 32.1071 46.5963 31.4065 48.6417 31.1248C50.6731 30.8451 52.8177 31.0071 54.4838 31.8975C55.745 32.5715 56.3072 32.9156 56.7343 33.177C56.9112 33.2853 57.0649 33.3794 57.2355 33.4769C57.8235 33.8128 58.4375 34.0751 60.333 34.8037C61.8385 35.3823 63.0956 35.5704 64.2415 35.4603C65.3833 35.3505 66.3307 34.9515 67.2078 34.4944C67.5668 34.3074 67.9145 34.1119 68.2639 33.9155C69.6355 33.1445 71.0342 32.3583 73.2488 32.0029C73.8857 31.9007 75.0984 31.8911 76.4719 32.1285C77.8409 32.3652 79.2685 32.8303 80.3874 33.602C86.2291 37.6308 85.3306 44.7953 82.2763 47.2207C80.009 49.0211 78.2045 51.0533 77.2591 53.964C76.3715 56.6964 77.3307 58.8514 78.2611 60.7219C78.3297 60.8596 78.3979 60.9958 78.4654 61.1306C79.3428 62.8813 80.1072 64.4067 79.9581 66.3426C79.8802 67.3525 79.2111 68.9431 77.5737 70.294C75.5512 71.9627 73.597 71.9018 71.1599 71.3732C70.6545 71.2636 70.1219 71.1304 69.5643 70.9908C67.4821 70.4699 65.0501 69.8613 62.3727 70.0683C58.6294 70.3577 56.1615 72.7692 54.0823 74.8008C53.9201 74.9593 53.7603 75.1155 53.6024 75.2681C51.3286 77.467 49.4526 78.9874 46.5102 78.3185C44.7977 77.9291 43.8183 77.1433 43.171 76.1393C42.4892 75.082 42.1306 73.7158 41.8239 72.0748C41.7481 71.6694 41.6764 71.2468 41.6025 70.8117C41.1048 67.8789 40.5109 64.3798 37.9322 61.7703C37.1035 60.9317 36.1707 60.1682 35.3023 59.4574C34.916 59.1412 34.5424 58.8355 34.1964 58.5382C33.0255 57.532 32.0543 56.5377 31.4217 55.2792C30.8549 54.1515 30.8952 53.0772 31.3299 52.0062C31.7805 50.896 32.6576 49.7945 33.7541 48.7404C34.8427 47.6939 36.087 46.7504 37.2064 45.9381C37.4314 45.7747 37.6562 45.6135 37.876 45.4559C38.6981 44.8663 39.4502 44.327 39.8838 43.9148C40.9431 42.9078 41.5556 41.9961 41.8603 40.8695C42.1382 39.8421 42.1381 38.6888 42.1379 37.3089C42.1379 37.273 42.1379 37.2369 42.1379 37.2007C42.1379 35.3469 42.4847 34.3993 42.8233 33.8687C43.1009 33.4337 43.3886 33.2237 43.7526 32.958C43.8504 32.8866 43.9538 32.8112 44.0639 32.7263Z" fill="url(#paint0_radial_312_503)" fill-opacity="0.4"/>
<path d="M44.0639 32.7263C44.8672 32.1071 46.5963 31.4065 48.6417 31.1248C50.6731 30.8451 52.8177 31.0071 54.4838 31.8975C55.745 32.5715 56.3072 32.9156 56.7343 33.177C56.9112 33.2853 57.0649 33.3794 57.2355 33.4769C57.8235 33.8128 58.4375 34.0751 60.333 34.8037C61.8385 35.3823 63.0956 35.5704 64.2415 35.4603C65.3833 35.3505 66.3307 34.9515 67.2078 34.4944C67.5668 34.3074 67.9145 34.1119 68.2639 33.9155C69.6355 33.1445 71.0342 32.3583 73.2488 32.0029C73.8857 31.9007 75.0984 31.8911 76.4719 32.1285C77.8409 32.3652 79.2685 32.8303 80.3874 33.602C86.2291 37.6308 85.3306 44.7953 82.2763 47.2207C80.009 49.0211 78.2045 51.0533 77.2591 53.964C76.3715 56.6964 77.3307 58.8514 78.2611 60.7219C78.3297 60.8596 78.3979 60.9958 78.4654 61.1306C79.3428 62.8813 80.1072 64.4067 79.9581 66.3426C79.8802 67.3525 79.2111 68.9431 77.5737 70.294C75.5512 71.9627 73.597 71.9018 71.1599 71.3732C70.6545 71.2636 70.1219 71.1304 69.5643 70.9908C67.4821 70.4699 65.0501 69.8613 62.3727 70.0683C58.6294 70.3577 56.1615 72.7692 54.0823 74.8008C53.9201 74.9593 53.7603 75.1155 53.6024 75.2681C51.3286 77.467 49.4526 78.9874 46.5102 78.3185C44.7977 77.9291 43.8183 77.1433 43.171 76.1393C42.4892 75.082 42.1306 73.7158 41.8239 72.0748C41.7481 71.6694 41.6764 71.2468 41.6025 70.8117C41.1048 67.8789 40.5109 64.3798 37.9322 61.7703C37.1035 60.9317 36.1707 60.1682 35.3023 59.4574C34.916 59.1412 34.5424 58.8355 34.1964 58.5382C33.0255 57.532 32.0543 56.5377 31.4217 55.2792C30.8549 54.1515 30.8952 53.0772 31.3299 52.0062C31.7805 50.896 32.6576 49.7945 33.7541 48.7404C34.8427 47.6939 36.087 46.7504 37.2064 45.9381C37.4314 45.7747 37.6562 45.6135 37.876 45.4559C38.6981 44.8663 39.4502 44.327 39.8838 43.9148C40.9431 42.9078 41.5556 41.9961 41.8603 40.8695C42.1382 39.8421 42.1381 38.6888 42.1379 37.3089C42.1379 37.273 42.1379 37.2369 42.1379 37.2007C42.1379 35.3469 42.4847 34.3993 42.8233 33.8687C43.1009 33.4337 43.3886 33.2237 43.7526 32.958C43.8504 32.8866 43.9538 32.8112 44.0639 32.7263Z" fill="url(#paint1_radial_312_503)" fill-opacity="0.4"/>
<path d="M44.0639 32.7263C44.8672 32.1071 46.5963 31.4065 48.6417 31.1248C50.6731 30.8451 52.8177 31.0071 54.4838 31.8975C55.745 32.5715 56.3072 32.9156 56.7343 33.177C56.9112 33.2853 57.0649 33.3794 57.2355 33.4769C57.8235 33.8128 58.4375 34.0751 60.333 34.8037C61.8385 35.3823 63.0956 35.5704 64.2415 35.4603C65.3833 35.3505 66.3307 34.9515 67.2078 34.4944C67.5668 34.3074 67.9145 34.1119 68.2639 33.9155C69.6355 33.1445 71.0342 32.3583 73.2488 32.0029C73.8857 31.9007 75.0984 31.8911 76.4719 32.1285C77.8409 32.3652 79.2685 32.8303 80.3874 33.602C86.2291 37.6308 85.3306 44.7953 82.2763 47.2207C80.009 49.0211 78.2045 51.0533 77.2591 53.964C76.3715 56.6964 77.3307 58.8514 78.2611 60.7219C78.3297 60.8596 78.3979 60.9958 78.4654 61.1306C79.3428 62.8813 80.1072 64.4067 79.9581 66.3426C79.8802 67.3525 79.2111 68.9431 77.5737 70.294C75.5512 71.9627 73.597 71.9018 71.1599 71.3732C70.6545 71.2636 70.1219 71.1304 69.5643 70.9908C67.4821 70.4699 65.0501 69.8613 62.3727 70.0683C58.6294 70.3577 56.1615 72.7692 54.0823 74.8008C53.9201 74.9593 53.7603 75.1155 53.6024 75.2681C51.3286 77.467 49.4526 78.9874 46.5102 78.3185C44.7977 77.9291 43.8183 77.1433 43.171 76.1393C42.4892 75.082 42.1306 73.7158 41.8239 72.0748C41.7481 71.6694 41.6764 71.2468 41.6025 70.8117C41.1048 67.8789 40.5109 64.3798 37.9322 61.7703C37.1035 60.9317 36.1707 60.1682 35.3023 59.4574C34.916 59.1412 34.5424 58.8355 34.1964 58.5382C33.0255 57.532 32.0543 56.5377 31.4217 55.2792C30.8549 54.1515 30.8952 53.0772 31.3299 52.0062C31.7805 50.896 32.6576 49.7945 33.7541 48.7404C34.8427 47.6939 36.087 46.7504 37.2064 45.9381C37.4314 45.7747 37.6562 45.6135 37.876 45.4559C38.6981 44.8663 39.4502 44.327 39.8838 43.9148C40.9431 42.9078 41.5556 41.9961 41.8603 40.8695C42.1382 39.8421 42.1381 38.6888 42.1379 37.3089C42.1379 37.273 42.1379 37.2369 42.1379 37.2007C42.1379 35.3469 42.4847 34.3993 42.8233 33.8687C43.1009 33.4337 43.3886 33.2237 43.7526 32.958C43.8504 32.8866 43.9538 32.8112 44.0639 32.7263Z" fill="url(#paint2_radial_312_503)" fill-opacity="0.4"/>
<path d="M44.0639 32.7263C44.8672 32.1071 46.5963 31.4065 48.6417 31.1248C50.6731 30.8451 52.8177 31.0071 54.4838 31.8975C55.745 32.5715 56.3072 32.9156 56.7343 33.177C56.9112 33.2853 57.0649 33.3794 57.2355 33.4769C57.8235 33.8128 58.4375 34.0751 60.333 34.8037C61.8385 35.3823 63.0956 35.5704 64.2415 35.4603C65.3833 35.3505 66.3307 34.9515 67.2078 34.4944C67.5668 34.3074 67.9145 34.1119 68.2639 33.9155C69.6355 33.1445 71.0342 32.3583 73.2488 32.0029C73.8857 31.9007 75.0984 31.8911 76.4719 32.1285C77.8409 32.3652 79.2685 32.8303 80.3874 33.602C86.2291 37.6308 85.3306 44.7953 82.2763 47.2207C80.009 49.0211 78.2045 51.0533 77.2591 53.964C76.3715 56.6964 77.3307 58.8514 78.2611 60.7219C78.3297 60.8596 78.3979 60.9958 78.4654 61.1306C79.3428 62.8813 80.1072 64.4067 79.9581 66.3426C79.8802 67.3525 79.2111 68.9431 77.5737 70.294C75.5512 71.9627 73.597 71.9018 71.1599 71.3732C70.6545 71.2636 70.1219 71.1304 69.5643 70.9908C67.4821 70.4699 65.0501 69.8613 62.3727 70.0683C58.6294 70.3577 56.1615 72.7692 54.0823 74.8008C53.9201 74.9593 53.7603 75.1155 53.6024 75.2681C51.3286 77.467 49.4526 78.9874 46.5102 78.3185C44.7977 77.9291 43.8183 77.1433 43.171 76.1393C42.4892 75.082 42.1306 73.7158 41.8239 72.0748C41.7481 71.6694 41.6764 71.2468 41.6025 70.8117C41.1048 67.8789 40.5109 64.3798 37.9322 61.7703C37.1035 60.9317 36.1707 60.1682 35.3023 59.4574C34.916 59.1412 34.5424 58.8355 34.1964 58.5382C33.0255 57.532 32.0543 56.5377 31.4217 55.2792C30.8549 54.1515 30.8952 53.0772 31.3299 52.0062C31.7805 50.896 32.6576 49.7945 33.7541 48.7404C34.8427 47.6939 36.087 46.7504 37.2064 45.9381C37.4314 45.7747 37.6562 45.6135 37.876 45.4559C38.6981 44.8663 39.4502 44.327 39.8838 43.9148C40.9431 42.9078 41.5556 41.9961 41.8603 40.8695C42.1382 39.8421 42.1381 38.6888 42.1379 37.3089C42.1379 37.273 42.1379 37.2369 42.1379 37.2007C42.1379 35.3469 42.4847 34.3993 42.8233 33.8687C43.1009 33.4337 43.3886 33.2237 43.7526 32.958C43.8504 32.8866 43.9538 32.8112 44.0639 32.7263Z" fill="url(#paint3_radial_312_503)" fill-opacity="0.4"/>
<path d="M44.0639 32.7263C44.8672 32.1071 46.5963 31.4065 48.6417 31.1248C50.6731 30.8451 52.8177 31.0071 54.4838 31.8975C55.745 32.5715 56.3072 32.9156 56.7343 33.177C56.9112 33.2853 57.0649 33.3794 57.2355 33.4769C57.8235 33.8128 58.4375 34.0751 60.333 34.8037C61.8385 35.3823 63.0956 35.5704 64.2415 35.4603C65.3833 35.3505 66.3307 34.9515 67.2078 34.4944C67.5668 34.3074 67.9145 34.1119 68.2639 33.9155C69.6355 33.1445 71.0342 32.3583 73.2488 32.0029C73.8857 31.9007 75.0984 31.8911 76.4719 32.1285C77.8409 32.3652 79.2685 32.8303 80.3874 33.602C86.2291 37.6308 85.3306 44.7953 82.2763 47.2207C80.009 49.0211 78.2045 51.0533 77.2591 53.964C76.3715 56.6964 77.3307 58.8514 78.2611 60.7219C78.3297 60.8596 78.3979 60.9958 78.4654 61.1306C79.3428 62.8813 80.1072 64.4067 79.9581 66.3426C79.8802 67.3525 79.2111 68.9431 77.5737 70.294C75.5512 71.9627 73.597 71.9018 71.1599 71.3732C70.6545 71.2636 70.1219 71.1304 69.5643 70.9908C67.4821 70.4699 65.0501 69.8613 62.3727 70.0683C58.6294 70.3577 56.1615 72.7692 54.0823 74.8008C53.9201 74.9593 53.7603 75.1155 53.6024 75.2681C51.3286 77.467 49.4526 78.9874 46.5102 78.3185C44.7977 77.9291 43.8183 77.1433 43.171 76.1393C42.4892 75.082 42.1306 73.7158 41.8239 72.0748C41.7481 71.6694 41.6764 71.2468 41.6025 70.8117C41.1048 67.8789 40.5109 64.3798 37.9322 61.7703C37.1035 60.9317 36.1707 60.1682 35.3023 59.4574C34.916 59.1412 34.5424 58.8355 34.1964 58.5382C33.0255 57.532 32.0543 56.5377 31.4217 55.2792C30.8549 54.1515 30.8952 53.0772 31.3299 52.0062C31.7805 50.896 32.6576 49.7945 33.7541 48.7404C34.8427 47.6939 36.087 46.7504 37.2064 45.9381C37.4314 45.7747 37.6562 45.6135 37.876 45.4559C38.6981 44.8663 39.4502 44.327 39.8838 43.9148C40.9431 42.9078 41.5556 41.9961 41.8603 40.8695C42.1382 39.8421 42.1381 38.6888 42.1379 37.3089C42.1379 37.273 42.1379 37.2369 42.1379 37.2007C42.1379 35.3469 42.4847 34.3993 42.8233 33.8687C43.1009 33.4337 43.3886 33.2237 43.7526 32.958C43.8504 32.8866 43.9538 32.8112 44.0639 32.7263Z" fill="url(#paint4_radial_312_503)" fill-opacity="0.4"/>
<path d="M44.0639 32.7263C44.8672 32.1071 46.5963 31.4065 48.6417 31.1248C50.6731 30.8451 52.8177 31.0071 54.4838 31.8975C55.745 32.5715 56.3072 32.9156 56.7343 33.177C56.9112 33.2853 57.0649 33.3794 57.2355 33.4769C57.8235 33.8128 58.4375 34.0751 60.333 34.8037C61.8385 35.3823 63.0956 35.5704 64.2415 35.4603C65.3833 35.3505 66.3307 34.9515 67.2078 34.4944C67.5668 34.3074 67.9145 34.1119 68.2639 33.9155C69.6355 33.1445 71.0342 32.3583 73.2488 32.0029C73.8857 31.9007 75.0984 31.8911 76.4719 32.1285C77.8409 32.3652 79.2685 32.8303 80.3874 33.602C86.2291 37.6308 85.3306 44.7953 82.2763 47.2207C80.009 49.0211 78.2045 51.0533 77.2591 53.964C76.3715 56.6964 77.3307 58.8514 78.2611 60.7219C78.3297 60.8596 78.3979 60.9958 78.4654 61.1306C79.3428 62.8813 80.1072 64.4067 79.9581 66.3426C79.8802 67.3525 79.2111 68.9431 77.5737 70.294C75.5512 71.9627 73.597 71.9018 71.1599 71.3732C70.6545 71.2636 70.1219 71.1304 69.5643 70.9908C67.4821 70.4699 65.0501 69.8613 62.3727 70.0683C58.6294 70.3577 56.1615 72.7692 54.0823 74.8008C53.9201 74.9593 53.7603 75.1155 53.6024 75.2681C51.3286 77.467 49.4526 78.9874 46.5102 78.3185C44.7977 77.9291 43.8183 77.1433 43.171 76.1393C42.4892 75.082 42.1306 73.7158 41.8239 72.0748C41.7481 71.6694 41.6764 71.2468 41.6025 70.8117C41.1048 67.8789 40.5109 64.3798 37.9322 61.7703C37.1035 60.9317 36.1707 60.1682 35.3023 59.4574C34.916 59.1412 34.5424 58.8355 34.1964 58.5382C33.0255 57.532 32.0543 56.5377 31.4217 55.2792C30.8549 54.1515 30.8952 53.0772 31.3299 52.0062C31.7805 50.896 32.6576 49.7945 33.7541 48.7404C34.8427 47.6939 36.087 46.7504 37.2064 45.9381C37.4314 45.7747 37.6562 45.6135 37.876 45.4559C38.6981 44.8663 39.4502 44.327 39.8838 43.9148C40.9431 42.9078 41.5556 41.9961 41.8603 40.8695C42.1382 39.8421 42.1381 38.6888 42.1379 37.3089C42.1379 37.273 42.1379 37.2369 42.1379 37.2007C42.1379 35.3469 42.4847 34.3993 42.8233 33.8687C43.1009 33.4337 43.3886 33.2237 43.7526 32.958C43.8504 32.8866 43.9538 32.8112 44.0639 32.7263Z" fill="url(#paint5_radial_312_503)" fill-opacity="0.3"/>
<path d="M44.0639 32.7263C44.8672 32.1071 46.5963 31.4065 48.6417 31.1248C50.6731 30.8451 52.8177 31.0071 54.4838 31.8975C55.745 32.5715 56.3072 32.9156 56.7343 33.177C56.9112 33.2853 57.0649 33.3794 57.2355 33.4769C57.8235 33.8128 58.4375 34.0751 60.333 34.8037C61.8385 35.3823 63.0956 35.5704 64.2415 35.4603C65.3833 35.3505 66.3307 34.9515 67.2078 34.4944C67.5668 34.3074 67.9145 34.1119 68.2639 33.9155C69.6355 33.1445 71.0342 32.3583 73.2488 32.0029C73.8857 31.9007 75.0984 31.8911 76.4719 32.1285C77.8409 32.3652 79.2685 32.8303 80.3874 33.602C86.2291 37.6308 85.3306 44.7953 82.2763 47.2207C80.009 49.0211 78.2045 51.0533 77.2591 53.964C76.3715 56.6964 77.3307 58.8514 78.2611 60.7219C78.3297 60.8596 78.3979 60.9958 78.4654 61.1306C79.3428 62.8813 80.1072 64.4067 79.9581 66.3426C79.8802 67.3525 79.2111 68.9431 77.5737 70.294C75.5512 71.9627 73.597 71.9018 71.1599 71.3732C70.6545 71.2636 70.1219 71.1304 69.5643 70.9908C67.4821 70.4699 65.0501 69.8613 62.3727 70.0683C58.6294 70.3577 56.1615 72.7692 54.0823 74.8008C53.9201 74.9593 53.7603 75.1155 53.6024 75.2681C51.3286 77.467 49.4526 78.9874 46.5102 78.3185C44.7977 77.9291 43.8183 77.1433 43.171 76.1393C42.4892 75.082 42.1306 73.7158 41.8239 72.0748C41.7481 71.6694 41.6764 71.2468 41.6025 70.8117C41.1048 67.8789 40.5109 64.3798 37.9322 61.7703C37.1035 60.9317 36.1707 60.1682 35.3023 59.4574C34.916 59.1412 34.5424 58.8355 34.1964 58.5382C33.0255 57.532 32.0543 56.5377 31.4217 55.2792C30.8549 54.1515 30.8952 53.0772 31.3299 52.0062C31.7805 50.896 32.6576 49.7945 33.7541 48.7404C34.8427 47.6939 36.087 46.7504 37.2064 45.9381C37.4314 45.7747 37.6562 45.6135 37.876 45.4559C38.6981 44.8663 39.4502 44.327 39.8838 43.9148C40.9431 42.9078 41.5556 41.9961 41.8603 40.8695C42.1382 39.8421 42.1381 38.6888 42.1379 37.3089C42.1379 37.273 42.1379 37.2369 42.1379 37.2007C42.1379 35.3469 42.4847 34.3993 42.8233 33.8687C43.1009 33.4337 43.3886 33.2237 43.7526 32.958C43.8504 32.8866 43.9538 32.8112 44.0639 32.7263Z" stroke="#200824" stroke-width="2" style="mix-blend-mode:multiply"/>
<path d="M53.9951 51.0572L52.7551 40.5372L52.5751 40.4772L51.6951 37.8572H54.4751L55.5351 47.3372H55.5951L60.2951 37.8972H62.9751L60.5951 40.6572L55.2751 51.0572H53.9951ZM47.3551 51.5172C46.9418 51.5172 46.6085 51.4039 46.3551 51.1772C46.1151 50.9639 45.9951 50.7039 45.9951 50.3972C45.9951 50.2506 46.0151 50.1372 46.0551 50.0572C46.4951 50.0439 46.8885 49.9439 47.2351 49.7572C47.5818 49.5706 47.9018 49.2839 48.1951 48.8972C48.5018 48.4972 48.7885 47.9839 49.0551 47.3572C49.3351 46.7172 49.6085 45.9506 49.8751 45.0572C50.1551 44.1639 50.4418 43.1172 50.7351 41.9172C51.0418 40.7172 51.3818 39.3639 51.7551 37.8572L52.9751 39.2972C52.5085 41.5106 52.0618 43.3572 51.6351 44.8372C51.2218 46.3172 50.8218 47.5039 50.4351 48.3972C50.0485 49.2906 49.6818 49.9572 49.3351 50.3972C48.9885 50.8372 48.6485 51.1306 48.3151 51.2772C47.9951 51.4372 47.6751 51.5172 47.3551 51.5172ZM47.1951 43.2972C46.8085 43.2972 46.4751 43.2106 46.1951 43.0372C45.9151 42.8506 45.7018 42.5906 45.5551 42.2572C45.4218 41.9106 45.3551 41.5106 45.3551 41.0572C45.3551 40.5906 45.4485 40.1306 45.6351 39.6772C45.8218 39.2239 46.1018 38.8172 46.4751 38.4572C46.8485 38.0839 47.3085 37.7906 47.8551 37.5772C48.4151 37.3506 49.0751 37.2372 49.8351 37.2372C50.4085 37.2372 50.9418 37.2839 51.4351 37.3772C51.9418 37.4706 52.4351 37.5706 52.9151 37.6772C53.3951 37.7706 53.8951 37.8306 54.4151 37.8572L53.2951 38.9772L51.5951 38.6172L51.4951 38.4372C51.1085 38.3306 50.6751 38.2772 50.1951 38.2772C49.4085 38.2772 48.7885 38.5172 48.3351 38.9972C47.8818 39.4772 47.6485 40.1772 47.6351 41.0972C47.6351 41.4439 47.6751 41.7772 47.7551 42.0972C47.8351 42.4172 47.9485 42.7372 48.0951 43.0572C47.9485 43.1506 47.7951 43.2172 47.6351 43.2572C47.4885 43.2839 47.3418 43.2972 47.1951 43.2972ZM61.1951 54.2172C60.9418 54.2172 60.7085 54.1572 60.4951 54.0372C60.2951 53.9172 60.1218 53.7172 59.9751 53.4372C59.8418 53.1706 59.7351 52.8039 59.6551 52.3372C59.5885 51.8839 59.5618 51.3306 59.5751 50.6772C59.5751 50.0106 59.6085 49.1706 59.6751 48.1572C59.7418 47.1439 59.8551 45.9839 60.0151 44.6772C60.1885 43.3572 60.4285 41.9239 60.7351 40.3772L60.6351 40.2572L60.3151 37.8972H63.1151C62.9818 38.6439 62.8351 39.4839 62.6751 40.4172C62.5151 41.3506 62.3618 42.3172 62.2151 43.3172C62.0685 44.3172 61.9485 45.3039 61.8551 46.2772C61.7618 47.2506 61.7151 48.1572 61.7151 48.9972C61.7018 50.0639 61.7685 50.9706 61.9151 51.7172C62.0618 52.4639 62.2951 53.0106 62.6151 53.3572C62.5485 53.5172 62.4418 53.6639 62.2951 53.7972C62.1485 53.9306 61.9818 54.0306 61.7951 54.0972C61.6085 54.1772 61.4085 54.2172 61.1951 54.2172ZM66.3005 67.1972L68.6405 54.6172C68.7338 54.1639 68.8605 53.7972 69.0205 53.5172C69.1938 53.2239 69.4138 53.0106 69.6805 52.8772C69.9605 52.7306 70.2938 52.6572 70.6805 52.6572C70.9338 52.6572 71.1671 52.6972 71.3805 52.7772C71.6071 52.8572 71.7538 52.9906 71.8205 53.1772C71.6471 53.3239 71.4938 53.5039 71.3605 53.7172C71.2405 53.9306 71.1338 54.1972 71.0405 54.5172C70.9605 54.8239 70.8738 55.1972 70.7805 55.6372L68.6605 66.9172L66.3005 67.1972ZM60.0605 68.0372C59.8071 68.0372 59.5671 67.9906 59.3405 67.8972C59.1138 67.8039 58.9671 67.6772 58.9005 67.5172C59.0605 67.4106 59.2005 67.2772 59.3205 67.1172C59.4405 66.9572 59.5405 66.7572 59.6205 66.5172C59.7138 66.2639 59.7938 65.9572 59.8605 65.5972L61.5205 56.7372C61.6405 56.1106 61.8205 55.5906 62.0605 55.1772C62.3005 54.7639 62.6205 54.4506 63.0205 54.2372C63.4205 54.0106 63.9071 53.8839 64.4805 53.8572L62.1005 66.0372C62.0071 66.5039 61.8738 66.8839 61.7005 67.1772C61.5405 67.4839 61.3271 67.7039 61.0605 67.8372C60.7938 67.9706 60.4605 68.0372 60.0605 68.0372ZM58.3405 59.2572C57.9405 59.2572 57.5938 59.1639 57.3005 58.9772C57.0205 58.7772 56.8005 58.5039 56.6405 58.1572C56.4805 57.8106 56.4005 57.4039 56.4005 56.9372C56.4005 56.2972 56.5538 55.6772 56.8605 55.0772C57.1805 54.4639 57.6605 53.9639 58.3005 53.5772C58.9405 53.1906 59.7538 52.9972 60.7405 52.9972C61.1538 52.9972 61.5271 53.0372 61.8605 53.1172C62.2071 53.1839 62.5271 53.2772 62.8205 53.3972C63.1271 53.5039 63.4138 53.6039 63.6805 53.6972C63.9471 53.7772 64.2071 53.8306 64.4605 53.8572L62.6805 54.4772L62.6405 54.4172C62.5605 54.3639 62.4205 54.2906 62.2205 54.1972C62.0205 54.1039 61.6871 54.0572 61.2205 54.0572C60.4205 54.0572 59.7938 54.3039 59.3405 54.7972C58.9005 55.2906 58.6805 55.9772 58.6805 56.8572C58.6805 57.2306 58.7271 57.5972 58.8205 57.9572C58.9138 58.3172 59.0538 58.6706 59.2405 59.0172C59.1071 59.0972 58.9605 59.1572 58.8005 59.1972C58.6538 59.2372 58.5005 59.2572 58.3405 59.2572ZM62.3805 61.2572L62.6205 59.8572H68.4605L68.2005 61.2572H62.3805Z" fill="#200824" style="mix-blend-mode:multiply"/>
</g>
<g filter="url(#filter1_i_312_503)">
<circle cx="48.5473" cy="72.311" r="2.89801" fill="white" fill-opacity="0.05"/>
</g>
<g filter="url(#filter2_dii_312_503)">
<rect x="40.183" y="98.1481" width="13.1867" height="13.1954" rx="6.59335" fill="#E4E2E2"/>
</g>
<g filter="url(#filter3_iii_312_503)">
<path d="M46.7762 100.597C47.0451 100.597 47.3183 100.754 47.4819 101.077L47.4888 101.092L48.149 102.477L48.149 102.477L48.1493 102.478C48.2577 102.697 48.4576 102.853 48.6918 102.888L48.6921 102.888L50.1687 103.096C50.1688 103.096 50.1688 103.096 50.1689 103.096C50.5318 103.15 50.7769 103.371 50.8637 103.644C50.9505 103.917 50.8818 104.251 50.5982 104.537L50.5978 104.537L49.5633 105.605C49.5632 105.605 49.5632 105.605 49.5631 105.605C49.4735 105.696 49.407 105.807 49.369 105.929C49.3312 106.05 49.3229 106.179 49.3451 106.304L49.5776 107.822L49.5776 107.822L49.5777 107.823C49.6412 108.201 49.5133 108.519 49.2956 108.7C49.0788 108.88 48.7675 108.928 48.4495 108.757L48.4493 108.757L47.0899 108.034L47.0898 108.033C46.99 107.981 46.8787 107.953 46.7658 107.953C46.6528 107.953 46.5416 107.981 46.4418 108.033L46.4417 108.034L45.0823 108.757C44.7637 108.926 44.4421 108.881 44.2234 108.701C44.0046 108.521 43.8822 108.201 43.9766 107.808L43.9767 107.808L43.9774 107.804L44.2068 106.319C44.229 106.193 44.2208 106.065 44.1829 105.943C44.145 105.821 44.0785 105.711 43.989 105.62L42.9341 104.514L42.9341 104.514L42.933 104.513C42.6471 104.231 42.5789 103.903 42.6659 103.635C42.7531 103.367 42.9992 103.15 43.3629 103.096L44.7855 102.888L44.7855 102.888C45.0135 102.854 45.2792 102.705 45.3876 102.477C45.3876 102.477 45.3877 102.477 45.3877 102.477L46.0611 101.092C46.0611 101.092 46.0611 101.092 46.0612 101.092C46.2252 100.759 46.5033 100.597 46.7762 100.597Z" fill="url(#paint6_radial_312_503)" stroke="#ABABAB" stroke-width="0.1"/>
<path d="M46.7762 100.597C47.0451 100.597 47.3183 100.754 47.4819 101.077L47.4888 101.092L48.149 102.477L48.149 102.477L48.1493 102.478C48.2577 102.697 48.4576 102.853 48.6918 102.888L48.6921 102.888L50.1687 103.096C50.1688 103.096 50.1688 103.096 50.1689 103.096C50.5318 103.15 50.7769 103.371 50.8637 103.644C50.9505 103.917 50.8818 104.251 50.5982 104.537L50.5978 104.537L49.5633 105.605C49.5632 105.605 49.5632 105.605 49.5631 105.605C49.4735 105.696 49.407 105.807 49.369 105.929C49.3312 106.05 49.3229 106.179 49.3451 106.304L49.5776 107.822L49.5776 107.822L49.5777 107.823C49.6412 108.201 49.5133 108.519 49.2956 108.7C49.0788 108.88 48.7675 108.928 48.4495 108.757L48.4493 108.757L47.0899 108.034L47.0898 108.033C46.99 107.981 46.8787 107.953 46.7658 107.953C46.6528 107.953 46.5416 107.981 46.4418 108.033L46.4417 108.034L45.0823 108.757C44.7637 108.926 44.4421 108.881 44.2234 108.701C44.0046 108.521 43.8822 108.201 43.9766 107.808L43.9767 107.808L43.9774 107.804L44.2068 106.319C44.229 106.193 44.2208 106.065 44.1829 105.943C44.145 105.821 44.0785 105.711 43.989 105.62L42.9341 104.514L42.9341 104.514L42.933 104.513C42.6471 104.231 42.5789 103.903 42.6659 103.635C42.7531 103.367 42.9992 103.15 43.3629 103.096L44.7855 102.888L44.7855 102.888C45.0135 102.854 45.2792 102.705 45.3876 102.477C45.3876 102.477 45.3877 102.477 45.3877 102.477L46.0611 101.092C46.0611 101.092 46.0611 101.092 46.0612 101.092C46.2252 100.759 46.5033 100.597 46.7762 100.597Z" fill="url(#paint7_radial_312_503)" stroke="#ABABAB" stroke-width="0.1"/>
</g>
<path d="M46.7761 100.597C47.045 100.597 47.3182 100.754 47.4818 101.077L47.4887 101.091L48.1489 102.477L48.1489 102.477L48.1492 102.478C48.2576 102.696 48.4575 102.853 48.6917 102.888L48.692 102.888L50.1686 103.096C50.1686 103.096 50.1687 103.096 50.1687 103.096C50.5317 103.15 50.7768 103.371 50.8636 103.644C50.9504 103.917 50.8817 104.251 50.5981 104.537L50.5977 104.537L49.5632 105.605C49.5631 105.605 49.563 105.605 49.563 105.605C49.4734 105.696 49.4068 105.807 49.3689 105.928C49.331 106.05 49.3228 106.179 49.345 106.304L49.5775 107.822L49.5775 107.822L49.5776 107.823C49.641 108.201 49.5132 108.519 49.2955 108.7C49.0787 108.879 48.7674 108.928 48.4493 108.757L48.4492 108.757L47.0898 108.033L47.0897 108.033C46.9898 107.98 46.8786 107.953 46.7657 107.953C46.6527 107.953 46.5415 107.98 46.4417 108.033L46.4416 108.033L45.0822 108.757C44.7636 108.926 44.4419 108.881 44.2232 108.701C44.0045 108.521 43.8821 108.201 43.9764 107.808L43.9766 107.808L43.9772 107.804L44.2067 106.319C44.2289 106.193 44.2207 106.064 44.1828 105.943C44.1449 105.821 44.0784 105.71 43.9889 105.62L42.9339 104.514L42.934 104.514L42.9329 104.513C42.647 104.23 42.5787 103.902 42.6658 103.635C42.753 103.367 42.9991 103.15 43.3627 103.096L44.7853 102.888L44.7854 102.888C45.0134 102.854 45.2791 102.705 45.3875 102.477C45.3875 102.477 45.3875 102.477 45.3876 102.477L46.061 101.092C46.061 101.092 46.061 101.092 46.061 101.092C46.225 100.758 46.5032 100.597 46.7761 100.597Z" fill="url(#paint8_radial_312_503)" stroke="#ABABAB" stroke-width="0.1"/>
<path d="M46.7761 100.597C47.045 100.597 47.3182 100.754 47.4818 101.077L47.4887 101.091L48.1489 102.477L48.1489 102.477L48.1492 102.478C48.2576 102.696 48.4575 102.853 48.6917 102.888L48.692 102.888L50.1686 103.096C50.1686 103.096 50.1687 103.096 50.1687 103.096C50.5317 103.15 50.7768 103.371 50.8636 103.644C50.9504 103.917 50.8817 104.251 50.5981 104.537L50.5977 104.537L49.5632 105.605C49.5631 105.605 49.563 105.605 49.563 105.605C49.4734 105.696 49.4068 105.807 49.3689 105.928C49.331 106.05 49.3228 106.179 49.345 106.304L49.5775 107.822L49.5775 107.822L49.5776 107.823C49.641 108.201 49.5132 108.519 49.2955 108.7C49.0787 108.879 48.7674 108.928 48.4493 108.757L48.4492 108.757L47.0898 108.033L47.0897 108.033C46.9898 107.98 46.8786 107.953 46.7657 107.953C46.6527 107.953 46.5415 107.98 46.4417 108.033L46.4416 108.033L45.0822 108.757C44.7636 108.926 44.4419 108.881 44.2232 108.701C44.0045 108.521 43.8821 108.201 43.9764 107.808L43.9766 107.808L43.9772 107.804L44.2067 106.319C44.2289 106.193 44.2207 106.064 44.1828 105.943C44.1449 105.821 44.0784 105.71 43.9889 105.62L42.9339 104.514L42.934 104.514L42.9329 104.513C42.647 104.23 42.5787 103.902 42.6658 103.635C42.753 103.367 42.9991 103.15 43.3627 103.096L44.7853 102.888L44.7854 102.888C45.0134 102.854 45.2791 102.705 45.3875 102.477C45.3875 102.477 45.3875 102.477 45.3876 102.477L46.061 101.092C46.061 101.092 46.061 101.092 46.061 101.092C46.225 100.758 46.5032 100.597 46.7761 100.597Z" fill="url(#paint9_radial_312_503)" stroke="#ABABAB" stroke-width="0.1"/>
<path d="M46.7761 100.597C47.045 100.597 47.3182 100.754 47.4818 101.077L47.4887 101.091L48.1489 102.477L48.1489 102.477L48.1492 102.478C48.2576 102.696 48.4575 102.853 48.6917 102.888L48.692 102.888L50.1686 103.096C50.1686 103.096 50.1687 103.096 50.1687 103.096C50.5317 103.15 50.7768 103.371 50.8636 103.644C50.9504 103.917 50.8817 104.251 50.5981 104.537L50.5977 104.537L49.5632 105.605C49.5631 105.605 49.563 105.605 49.563 105.605C49.4734 105.696 49.4068 105.807 49.3689 105.928C49.331 106.05 49.3228 106.179 49.345 106.304L49.5775 107.822L49.5775 107.822L49.5776 107.823C49.641 108.201 49.5132 108.519 49.2955 108.7C49.0787 108.879 48.7674 108.928 48.4493 108.757L48.4492 108.757L47.0898 108.033L47.0897 108.033C46.9898 107.98 46.8786 107.953 46.7657 107.953C46.6527 107.953 46.5415 107.98 46.4417 108.033L46.4416 108.033L45.0822 108.757C44.7636 108.926 44.4419 108.881 44.2232 108.701C44.0045 108.521 43.8821 108.201 43.9764 107.808L43.9766 107.808L43.9772 107.804L44.2067 106.319C44.2289 106.193 44.2207 106.064 44.1828 105.943C44.1449 105.821 44.0784 105.71 43.9889 105.62L42.9339 104.514L42.934 104.514L42.9329 104.513C42.647 104.23 42.5787 103.902 42.6658 103.635C42.753 103.367 42.9991 103.15 43.3627 103.096L44.7853 102.888L44.7854 102.888C45.0134 102.854 45.2791 102.705 45.3875 102.477C45.3875 102.477 45.3875 102.477 45.3876 102.477L46.061 101.092C46.061 101.092 46.061 101.092 46.061 101.092C46.225 100.758 46.5032 100.597 46.7761 100.597Z" fill="url(#paint10_radial_312_503)" stroke="#ABABAB" stroke-width="0.1"/>
<path d="M46.7761 100.597C47.045 100.597 47.3182 100.754 47.4818 101.077L47.4887 101.091L48.1489 102.477L48.1489 102.477L48.1492 102.478C48.2576 102.696 48.4575 102.853 48.6917 102.888L48.692 102.888L50.1686 103.096C50.1686 103.096 50.1687 103.096 50.1687 103.096C50.5317 103.15 50.7768 103.371 50.8636 103.644C50.9504 103.917 50.8817 104.251 50.5981 104.537L50.5977 104.537L49.5632 105.605C49.5631 105.605 49.563 105.605 49.563 105.605C49.4734 105.696 49.4068 105.807 49.3689 105.928C49.331 106.05 49.3228 106.179 49.345 106.304L49.5775 107.822L49.5775 107.822L49.5776 107.823C49.641 108.201 49.5132 108.519 49.2955 108.7C49.0787 108.879 48.7674 108.928 48.4493 108.757L48.4492 108.757L47.0898 108.033L47.0897 108.033C46.9898 107.98 46.8786 107.953 46.7657 107.953C46.6527 107.953 46.5415 107.98 46.4417 108.033L46.4416 108.033L45.0822 108.757C44.7636 108.926 44.4419 108.881 44.2232 108.701C44.0045 108.521 43.8821 108.201 43.9764 107.808L43.9766 107.808L43.9772 107.804L44.2067 106.319C44.2289 106.193 44.2207 106.064 44.1828 105.943C44.1449 105.821 44.0784 105.71 43.9889 105.62L42.9339 104.514L42.934 104.514L42.9329 104.513C42.647 104.23 42.5787 103.902 42.6658 103.635C42.753 103.367 42.9991 103.15 43.3627 103.096L44.7853 102.888L44.7854 102.888C45.0134 102.854 45.2791 102.705 45.3875 102.477C45.3875 102.477 45.3875 102.477 45.3876 102.477L46.061 101.092C46.061 101.092 46.061 101.092 46.061 101.092C46.225 100.758 46.5032 100.597 46.7761 100.597Z" fill="url(#paint11_radial_312_503)" stroke="#ABABAB" stroke-width="0.1"/>
<g filter="url(#filter4_i_312_503)">
<ellipse cx="46.926" cy="99.1977" rx="0.449547" ry="0.449844" fill="white"/>
</g>
<g filter="url(#filter5_f_312_503)">
<path d="M52.27 104.746C52.27 107.782 49.81 110.244 46.7761 110.244C43.7421 110.244 41.2821 107.782 41.2821 104.746C41.2821 101.709 43.7421 99.2478 46.7761 99.2478C49.81 99.2478 52.27 101.709 52.27 104.746Z" stroke="white" stroke-opacity="0.7"/>
</g>
<g filter="url(#filter6_f_312_503)">
<path d="M44.4633 92.8869C44.4633 94.6475 45.7599 96.0747 47.3594 96.0747C48.9588 96.0747 50.2555 94.6475 50.2555 92.8869C50.2555 91.1263 48.9588 89.6991 47.3594 89.6991" stroke="white" stroke-opacity="0.7"/>
</g>
<path fill-rule="evenodd" clip-rule="evenodd" d="M46.8674 99.5065C46.9746 99.5124 47.0615 99.4632 47.1217 99.4063C47.1786 99.3523 47.2207 99.2837 47.2527 99.2184C47.3171 99.0869 47.3659 98.9152 47.404 98.7401C47.4334 98.6013 47.5718 97.915 47.6204 96.3681C47.4718 96.3725 47.234 96.3795 47.234 96.3795C47.234 96.3795 47.1873 97.7777 47.0103 98.6704C46.9743 98.8357 46.934 98.9679 46.8922 99.0531C46.8906 99.0567 46.8889 99.0599 46.8872 99.0631C46.8786 99.0482 46.8685 99.0287 46.8577 99.0026C46.8117 98.894 46.7734 98.7302 46.7447 98.5242C46.6875 98.1155 46.6743 97.5917 46.6812 97.1374C46.6876 96.6971 46.733 96.134 46.8127 95.6805C46.8531 95.4522 46.9001 95.2619 46.9512 95.1306C46.962 95.1026 46.9723 95.0794 46.9818 95.0602C47.0043 95.1108 47.0072 95.1012 47.0283 95.2034C47.0094 95.0667 47.0509 95.314 47.0283 95.2034C47.1754 95.2163 47.3087 95.1328 47.4425 95.1912C47.471 95.3294 47.4216 95.0392 47.4425 95.1912C47.4147 95.0566 47.3769 94.9187 47.3156 94.8135C47.2519 94.7049 47.1343 94.5886 46.9482 94.611C46.8302 94.6251 46.7489 94.7022 46.6999 94.7661C46.6488 94.8322 46.6088 94.9143 46.5763 94.998C46.5104 95.167 46.4578 95.3887 46.4159 95.6267C46.3317 96.1053 46.2847 96.6903 46.2779 97.1481C46.2711 97.6099 46.2842 98.1574 46.3454 98.5961C46.3757 98.8137 46.4197 99.0175 46.4855 99.1729C46.5439 99.3108 46.6554 99.4948 46.8674 99.5065Z" fill="url(#paint12_linear_312_503)"/>
<path fill-rule="evenodd" clip-rule="evenodd" d="M46.8674 99.5065C46.9746 99.5124 47.0615 99.4632 47.1217 99.4063C47.1786 99.3523 47.2207 99.2837 47.2527 99.2184C47.3171 99.0869 47.3659 98.9152 47.404 98.7401C47.4334 98.6013 47.574 97.7366 47.6501 96.3673C47.4718 96.3725 47.4335 96.3588 47.2874 96.3779C47.2745 96.4552 47.1346 98.3439 47.0103 98.6704C46.9743 98.8357 46.934 98.9679 46.8922 99.0531C46.8906 99.0567 46.8889 99.0599 46.8872 99.0631C46.8786 99.0482 46.8685 99.0287 46.8577 99.0026C46.8117 98.894 46.7734 98.7302 46.7447 98.5242C46.6875 98.1155 46.6743 97.5917 46.6812 97.1374C46.6876 96.6971 46.733 96.134 46.8127 95.6805C46.8531 95.4522 46.9001 95.2619 46.9512 95.1306C46.962 95.1026 46.9723 95.0794 46.9818 95.0602C47.0043 95.1108 47.0072 95.1012 47.0283 95.2034C47.0094 95.0667 47.0509 95.314 47.0283 95.2034C47.1754 95.2163 47.3087 95.1328 47.4425 95.1912C47.471 95.3294 47.4216 95.0392 47.4425 95.1912C47.4147 95.0566 47.3769 94.9187 47.3156 94.8135C47.2519 94.7049 47.1343 94.5886 46.9482 94.611C46.8302 94.6251 46.7489 94.7022 46.6999 94.7661C46.6488 94.8322 46.6088 94.9143 46.5763 94.998C46.5104 95.167 46.4578 95.3887 46.4159 95.6267C46.3317 96.1053 46.2847 96.6903 46.2779 97.1481C46.2711 97.6099 46.2842 98.1574 46.3454 98.5961C46.3757 98.8137 46.4197 99.0175 46.4855 99.1729C46.5439 99.3108 46.6554 99.4948 46.8674 99.5065Z" fill="url(#paint13_radial_312_503)"/>
<path fill-rule="evenodd" clip-rule="evenodd" d="M46.8631 99.5C46.9704 99.5059 47.0573 99.4567 47.1174 99.3998C47.1744 99.3458 47.2164 99.2773 47.2485 99.2119C47.3129 99.0805 47.3617 98.9088 47.3997 98.7337C47.4292 98.5949 47.5672 97.9382 47.6255 96.3614C47.4675 96.366 47.4056 96.353 47.2595 96.3721C47.2439 97.6505 47.059 98.5242 47.0274 98.6737C46.9869 98.8934 46.935 98.9439 46.8909 99.0564C46.8956 99.0661 46.8926 99.0563 46.8829 99.0566C46.8744 99.0418 46.8643 99.0223 46.8534 98.9962C46.8075 98.8875 46.7691 98.7237 46.7404 98.5177C46.6833 98.109 46.67 97.5853 46.6769 97.1309C46.6833 96.6907 46.7287 96.1276 46.8084 95.674C46.8488 95.4457 46.8958 95.2554 46.9469 95.1241C46.9577 95.0962 46.968 95.0729 46.9775 95.0538C47 95.1043 47.0029 95.0947 47.024 95.1969C47.0051 95.0602 47.0467 95.3076 47.024 95.1969C47.1711 95.2098 47.3044 95.1263 47.4382 95.1848C47.4667 95.3229 47.4174 95.0327 47.4382 95.1848C47.4104 95.0502 47.3727 94.9123 47.3113 94.807C47.2476 94.6985 47.13 94.5822 46.9439 94.6046C46.8259 94.6186 46.7446 94.6957 46.6956 94.7596C46.6445 94.8258 46.6046 94.9078 46.572 94.9915C46.5061 95.1606 46.4535 95.3822 46.4117 95.6202C46.3275 96.0988 46.2804 96.6838 46.2736 97.1416C46.2668 97.6034 46.2799 98.1509 46.3411 98.5897C46.3715 98.8072 46.4154 99.0111 46.4812 99.1665C46.5396 99.3044 46.6512 99.4883 46.8631 99.5Z" fill="url(#paint14_radial_312_503)"/>
<path fill-rule="evenodd" clip-rule="evenodd" d="M46.8674 99.5065C46.9746 99.5124 47.0615 99.4632 47.1217 99.4063C47.1786 99.3523 47.2207 99.2837 47.2527 99.2184C47.3171 99.0869 47.3659 98.9152 47.404 98.7401C47.4334 98.6013 47.57 98.0636 47.6204 96.3681C47.4328 96.3736 47.4335 96.3588 47.2874 96.3779C47.1833 98.1047 47.0257 98.5985 47.0103 98.6704C46.9743 98.8357 46.934 98.9679 46.8922 99.0531C46.8906 99.0567 46.8889 99.0599 46.8872 99.0631C46.8786 99.0482 46.8685 99.0287 46.8577 99.0026C46.8117 98.894 46.7734 98.7302 46.7447 98.5242C46.6875 98.1155 46.6743 97.5917 46.6812 97.1374C46.6876 96.6971 46.733 96.134 46.8127 95.6805C46.8531 95.4522 46.9001 95.2619 46.9512 95.1306C46.962 95.1026 46.9723 95.0794 46.9818 95.0602C47.0043 95.1108 47.0072 95.1012 47.0283 95.2034C47.0094 95.0667 47.0509 95.314 47.0283 95.2034C47.1754 95.2163 47.3087 95.1328 47.4425 95.1912C47.4147 95.0566 47.3769 94.9187 47.3156 94.8135C47.2519 94.7049 47.1343 94.5886 46.9482 94.611C46.8302 94.6251 46.7489 94.7022 46.6999 94.7661C46.6488 94.8322 46.6088 94.9143 46.5763 94.998C46.5104 95.167 46.4578 95.3887 46.4159 95.6267C46.3317 96.1053 46.2847 96.6903 46.2779 97.1481C46.2711 97.6099 46.2842 98.1574 46.3454 98.5961C46.3757 98.8137 46.4197 99.0175 46.4855 99.1729C46.5439 99.3108 46.6554 99.4948 46.8674 99.5065Z" fill="url(#paint15_radial_312_503)"/>
<path fill-rule="evenodd" clip-rule="evenodd" d="M46.8674 99.5065C46.9746 99.5124 47.0615 99.4632 47.1217 99.4063C47.1786 99.3523 47.2207 99.2837 47.2527 99.2184C47.3171 99.0869 47.3659 98.9152 47.404 98.7401C47.4334 98.6013 47.6081 97.379 47.6204 96.3681C47.4718 96.3725 47.4099 96.3595 47.2638 96.3786C47.2456 97.8651 47.0257 98.5985 47.0103 98.6704C46.9743 98.8357 46.934 98.9679 46.8922 99.0531C46.8906 99.0567 46.8889 99.0599 46.8872 99.0631C46.8786 99.0482 46.8685 99.0287 46.8577 99.0026C46.8117 98.894 46.7734 98.7302 46.7447 98.5242C46.6875 98.1155 46.6743 97.5917 46.6812 97.1374C46.6876 96.6971 46.733 96.134 46.8127 95.6805C46.8531 95.4522 46.9001 95.2619 46.9512 95.1306C46.962 95.1026 46.9723 95.0794 46.9818 95.0602C47.0043 95.1108 47.0264 95.1859 47.0475 95.2881C47.0702 95.3988 47.0094 95.0667 47.0283 95.2034C47.1754 95.2163 47.3087 95.1328 47.4425 95.1912C47.471 95.3294 47.4216 95.0392 47.4425 95.1912C47.4147 95.0566 47.3769 94.9187 47.3156 94.8135C47.2519 94.7049 47.1343 94.5886 46.9482 94.611C46.8302 94.6251 46.7489 94.7022 46.6999 94.7661C46.6488 94.8322 46.6088 94.9143 46.5763 94.998C46.5104 95.167 46.4578 95.3887 46.4159 95.6267C46.3317 96.1053 46.2847 96.6903 46.2779 97.1481C46.2711 97.6099 46.2842 98.1574 46.3454 98.5961C46.3757 98.8137 46.4197 99.0175 46.4855 99.1729C46.5439 99.3108 46.6554 99.4948 46.8674 99.5065Z" fill="url(#paint16_radial_312_503)"/>
<path fill-rule="evenodd" clip-rule="evenodd" d="M46.8674 99.5065C46.9746 99.5124 47.0615 99.4632 47.1217 99.4063C47.1786 99.3523 47.2207 99.2837 47.2527 99.2184C47.3171 99.0869 47.3659 98.9152 47.404 98.7401C47.4334 98.6013 47.6411 97.1081 47.6204 96.3681C47.4328 96.3736 47.4099 96.3595 47.2638 96.3786C47.2424 98.1327 47.0257 98.5985 47.0103 98.6704C46.9743 98.8357 46.934 98.9679 46.8922 99.0531C46.8906 99.0567 46.8889 99.0599 46.8872 99.0631C46.8786 99.0482 46.8685 99.0287 46.8577 99.0026C46.8117 98.894 46.7734 98.7302 46.7447 98.5242C46.6875 98.1155 46.6743 97.5917 46.6812 97.1374C46.6876 96.6971 46.733 96.134 46.8127 95.6805C46.8531 95.4522 46.9001 95.2619 46.9512 95.1306C46.962 95.1026 46.9723 95.0794 46.9818 95.0602C47.0043 95.1108 46.9963 95.0667 47.0174 95.1688C46.9986 95.0322 47.0401 95.2795 47.0174 95.1688C47.1645 95.1817 47.3087 95.1328 47.4425 95.1912C47.471 95.3294 47.4216 95.0392 47.4425 95.1912C47.4147 95.0566 47.3769 94.9187 47.3156 94.8135C47.2519 94.7049 47.1343 94.5886 46.9482 94.611C46.8302 94.6251 46.7489 94.7022 46.6999 94.7661C46.6488 94.8322 46.6088 94.9143 46.5763 94.998C46.5104 95.167 46.4578 95.3887 46.4159 95.6267C46.3317 96.1053 46.2847 96.6903 46.2779 97.1481C46.2711 97.6099 46.2842 98.1574 46.3454 98.5961C46.3757 98.8137 46.4197 99.0175 46.4855 99.1729C46.5439 99.3108 46.6554 99.4948 46.8674 99.5065Z" fill="url(#paint17_radial_312_503)"/>
<path fill-rule="evenodd" clip-rule="evenodd" d="M46.8674 99.5065C46.9746 99.5124 47.0615 99.4632 47.1217 99.4063C47.1786 99.3523 47.2207 99.2837 47.2527 99.2184C47.3171 99.0869 47.3659 98.9152 47.404 98.7401C47.4803 98.3635 47.5381 98.2429 47.6204 96.3681C47.4718 96.3725 47.4099 96.3595 47.2638 96.3786C47.1536 98.1056 47.0257 98.5985 47.0103 98.6704C46.9743 98.8357 46.934 98.9679 46.8922 99.0531C46.8906 99.0567 46.8889 99.0599 46.8872 99.0631C46.8786 99.0482 46.8685 99.0287 46.8577 99.0026C46.8117 98.894 46.7734 98.7302 46.7447 98.5242C46.6875 98.1155 46.6743 97.5917 46.6812 97.1374C46.6876 96.6971 46.733 96.134 46.8127 95.6805C46.8531 95.4522 46.9001 95.2619 46.9512 95.1306C46.962 95.1026 46.9723 95.0794 46.9818 95.0602C47.0043 95.1108 47.0072 95.1012 47.0283 95.2034C47.0094 95.0667 47.0509 95.314 47.0283 95.2034C47.1754 95.2163 47.3087 95.1328 47.4425 95.1912C47.471 95.3294 47.4216 95.0392 47.4425 95.1912C47.4147 95.0566 47.3769 94.9187 47.3156 94.8135C47.2519 94.7049 47.1343 94.5886 46.9482 94.611C46.8302 94.6251 46.7489 94.7022 46.6999 94.7661C46.6488 94.8322 46.6088 94.9143 46.5763 94.998C46.5104 95.167 46.4578 95.3887 46.4159 95.6267C46.3317 96.1053 46.2847 96.6903 46.2779 97.1481C46.2711 97.6099 46.2842 98.1574 46.3454 98.5961C46.3757 98.8137 46.4197 99.0175 46.4855 99.1729C46.5439 99.3108 46.6554 99.4948 46.8674 99.5065Z" fill="url(#paint18_radial_312_503)"/>
<path d="M47.4425 95.1912C47.3087 95.1328 47.1754 95.2163 47.0283 95.2034L47.0283 95.2938L47.4425 95.2938L47.4425 95.1912Z" fill="url(#paint19_radial_312_503)"/>
<path fill-rule="evenodd" clip-rule="evenodd" d="M46.8674 99.5065C46.9746 99.5124 47.0615 99.4632 47.1217 99.4063C47.1786 99.3523 47.2207 99.2837 47.2527 99.2184C47.3171 99.0869 47.3659 98.9152 47.404 98.7401C47.4803 98.3635 47.5381 98.2429 47.6204 96.3681C47.4718 96.3725 47.4099 96.3595 47.2638 96.3786C47.1536 98.1056 47.0257 98.5985 47.0103 98.6704C46.9743 98.8357 46.934 98.9679 46.8922 99.0531C46.8906 99.0567 46.8889 99.0599 46.8872 99.0631C46.8786 99.0482 46.8685 99.0287 46.8577 99.0026C46.8117 98.894 46.7734 98.7302 46.7447 98.5242C46.6875 98.1155 46.6743 97.5917 46.6812 97.1374C46.6876 96.6971 46.733 96.134 46.8127 95.6805C46.8531 95.4522 46.9001 95.2619 46.9512 95.1306C46.962 95.1026 46.9723 95.0794 46.9818 95.0602C47.0043 95.1108 46.9862 95.0268 47.0073 95.129C46.9885 94.9923 47.03 95.2396 47.0073 95.129C47.1544 95.1419 47.2987 95.0863 47.4325 95.1448C47.461 95.283 47.4117 94.9927 47.4325 95.1448C47.4047 95.0102 47.3769 94.9187 47.3156 94.8135C47.2519 94.7049 47.1343 94.5886 46.9482 94.611C46.8302 94.6251 46.7489 94.7022 46.6999 94.7661C46.6488 94.8322 46.6088 94.9143 46.5763 94.998C46.5104 95.167 46.4578 95.3887 46.4159 95.6267C46.3317 96.1053 46.2847 96.6903 46.2779 97.1481C46.2711 97.6099 46.2842 98.1574 46.3454 98.5961C46.3757 98.8137 46.4197 99.0175 46.4855 99.1729C46.5439 99.3108 46.6554 99.4948 46.8674 99.5065Z" fill="url(#paint20_radial_312_503)"/>
<g filter="url(#filter7_f_312_503)">
<path d="M47.0705 99.2878C47.076 99.2788 47.0778 99.2682 47.0755 99.2583C47.0733 99.2484 47.0671 99.2399 47.0584 99.2347C47.0497 99.2296 47.0392 99.2282 47.0292 99.2309C47.0191 99.2336 47.0104 99.2401 47.0049 99.249L47.0705 99.2878ZM46.3821 97.0113C46.3635 97.3621 46.3735 98.2973 46.5035 98.9401L46.5794 98.9217C46.4511 98.2878 46.4411 97.3596 46.4595 97.0122L46.3821 97.0113ZM46.5035 98.9401C46.5578 99.2084 46.6617 99.348 46.778 99.3929C46.8964 99.4387 47.0131 99.3806 47.0705 99.2878L47.0049 99.249C46.965 99.3139 46.887 99.3509 46.8084 99.3204C46.7275 99.2892 46.6319 99.1812 46.5794 98.9217L46.5035 98.9401Z" fill="url(#paint21_linear_312_503)"/>
</g>
<path d="M46.9263 98.448H47.0761L47.3758 98.5979L47.5257 98.7479L47.6755 99.0478" stroke="url(#paint22_linear_312_503)"/>
<path d="M47.1434 98.9823L47.2488 98.9324L47.5394 99.0092L47.8256 99.1094L48.1053 99.2445" stroke="url(#paint23_linear_312_503)" stroke-width="2"/>
<g filter="url(#filter8_i_312_503)">
<path d="M50.0096 92.8366C49.8981 91.2259 48.5028 90.0106 46.8932 90.1221" stroke="#F2D233" stroke-width="2.5"/>
</g>
<g filter="url(#filter9_i_312_503)">
<path d="M48.9767 75.18C48.9196 74.2921 48.9577 74.8841 48.5178 73.4702" stroke="#E7B023" stroke-width="2.9"/>
</g>
<g filter="url(#filter10_ddddd_312_503)">
<g filter="url(#filter11_i_312_503)">
<path d="M45.9189 90.468C43.6975 91.7369 44.0615 94.0492 45.1872 95.1549C46.3128 96.2607 48.1207 96.2439 49.2251 95.1174C50.3295 93.9909 50.3123 92.1814 49.1867 91.0756" stroke="#F2D233" stroke-width="2.5"/>
</g>
<path fill-rule="evenodd" clip-rule="evenodd" d="M47.3364 93.3459C47.8209 93.387 48.2106 93.1767 48.4789 92.9277C48.7333 92.6914 48.9196 92.3877 49.0607 92.0969C49.3444 91.5118 49.5556 90.743 49.718 89.9573C49.8436 89.3343 50.4286 85.9408 50.5654 78.9611C49.9794 79.2314 48.8241 79.5495 48.8241 79.5495C48.8241 79.5495 48.6885 85.5809 47.9369 89.5889C47.7834 90.3306 47.6084 90.9226 47.4244 91.3016C47.4174 91.3174 47.4098 91.3317 47.4023 91.346C47.3628 91.2778 47.3161 91.1882 47.2657 91.069C47.0525 90.5719 46.8707 89.8272 46.7301 88.8927C46.4504 87.0391 46.3627 84.6718 46.3696 82.6208C46.375 80.6332 46.5501 78.0961 46.8859 76.0585C47.0558 75.0328 47.2578 74.1797 47.4817 73.5936C47.5289 73.4688 47.5743 73.3652 47.6161 73.28C47.7204 73.5111 47.786 73.8948 47.9817 75.207C47.8893 74.5873 48.09 75.71 47.9817 75.207C48.6464 75.2852 49.7213 74.9084 49.7213 74.9084C49.8571 75.5364 49.6084 73.2699 49.7213 74.9084C49.6499 73.8724 49.3923 72.6943 49.1097 72.2105C48.8164 71.7117 48.2795 71.1706 47.4404 71.2466C46.9086 71.2942 46.5455 71.6315 46.3278 71.9131C46.1006 72.2051 45.9247 72.5703 45.7823 72.9438C45.4936 73.6986 45.2681 74.6926 45.0918 75.7618C44.7372 77.9121 44.5558 80.5477 44.5497 82.6145C44.5435 84.6992 44.6317 87.1738 44.9315 89.1638C45.08 90.1503 45.2894 91.077 45.5947 91.7878C45.8656 92.4185 46.3789 93.2644 47.3364 93.3459Z" fill="url(#paint24_linear_312_503)"/>
<path fill-rule="evenodd" clip-rule="evenodd" d="M47.3364 93.3459C47.8209 93.387 48.2106 93.1767 48.4789 92.9277C48.7333 92.6914 48.9196 92.3877 49.0607 92.0969C49.3444 91.5118 49.5556 90.743 49.718 89.9573C49.8436 89.3343 50.4321 85.4478 50.7028 79.2735C49.8981 79.273 49.7246 79.2061 49.0658 79.2725C49.0117 79.62 48.4808 88.1311 47.9369 89.5889C47.7834 90.3306 47.6084 90.9226 47.4244 91.3016C47.4174 91.3174 47.4098 91.3317 47.4023 91.346C47.3628 91.2778 47.3161 91.1882 47.2657 91.069C47.0525 90.5719 46.8707 89.8272 46.7301 88.8927C46.4504 87.0391 46.3627 84.6718 46.3696 82.6208C46.375 80.6332 46.5501 78.0961 46.8859 76.0585C47.0558 75.0328 47.2578 74.1797 47.4817 73.5936C47.5289 73.4688 47.5743 73.3652 47.6161 73.28C47.7204 73.5111 47.7328 73.4683 47.8335 73.9326C47.7411 73.3129 47.9418 74.4356 47.8335 73.9326C48.4983 74.0108 49.1159 74.3365 49.723 74.6186C49.8589 75.2466 49.6208 73.929 49.723 74.6186C49.5905 74.007 49.3923 72.6943 49.1097 72.2105C48.8164 71.7117 48.2795 71.1706 47.4404 71.2466C46.9086 71.2942 46.5455 71.6315 46.3278 71.9131C46.1006 72.2051 45.9247 72.5703 45.7823 72.9438C45.4936 73.6986 45.2681 74.6926 45.0918 75.7618C44.7372 77.9121 44.5558 80.5477 44.5497 82.6145C44.5435 84.6992 44.6317 87.1738 44.9315 89.1638C45.08 90.1503 45.2894 91.077 45.5947 91.7878C45.8656 92.4185 46.3789 93.2644 47.3364 93.3459Z" fill="url(#paint25_radial_312_503)"/>
<path fill-rule="evenodd" clip-rule="evenodd" d="M47.3185 93.317C47.8029 93.3581 48.1926 93.1478 48.461 92.8988C48.7154 92.6625 48.9016 92.3588 49.0428 92.068C49.3265 91.4829 49.5377 90.7141 49.7 89.9284C49.8257 89.3054 50.4138 86.3585 50.5928 79.2445C49.8801 79.2441 49.6001 79.1771 48.9412 79.2435C48.939 85.0153 48.1507 88.9362 48.0163 89.6072C47.845 90.5938 47.6134 90.815 47.4203 91.3171C47.4418 91.3615 47.428 91.3171 47.3843 91.3171C47.3449 91.2489 47.2982 91.1593 47.2478 91.0401C47.0346 90.543 46.8528 89.7983 46.7122 88.8638C46.4324 87.0102 46.3448 84.6429 46.3517 82.5919C46.3571 80.6043 46.5321 78.0672 46.8679 76.0296C47.0379 75.0039 47.2399 74.1508 47.4638 73.5647C47.5109 73.4399 47.5564 73.3363 47.5982 73.2511C47.7025 73.4822 47.7148 73.4394 47.8156 73.9037C47.7231 73.284 47.9239 74.4067 47.8156 73.9037C48.4803 73.9819 49.1159 74.3364 49.723 74.6185C49.8589 75.2466 49.6208 73.929 49.723 74.6185C49.5904 74.0069 49.3744 72.6654 49.0918 72.1816C48.7985 71.6828 48.2616 71.1417 47.4224 71.2177C46.8907 71.2653 46.5276 71.6026 46.3098 71.8842C46.0826 72.1762 45.9067 72.5414 45.7644 72.9149C45.4757 73.6697 45.2501 74.6637 45.0739 75.7329C44.7192 77.8832 44.5379 80.5188 44.5318 82.5856C44.5255 84.6703 44.6137 87.1449 44.9136 89.1349C45.062 90.1214 45.2714 91.0481 45.5767 91.7589C45.8476 92.3896 46.361 93.2355 47.3185 93.317Z" fill="url(#paint26_radial_312_503)"/>
<path fill-rule="evenodd" clip-rule="evenodd" d="M47.3364 93.3459C47.8209 93.387 48.2106 93.1767 48.4789 92.9277C48.7333 92.6914 48.9196 92.3877 49.0607 92.0969C49.3444 91.5118 49.5556 90.743 49.718 89.9573C49.8436 89.3343 50.4315 86.9243 50.5687 79.2734C49.7222 79.2729 49.7246 79.2061 49.0658 79.2725C48.6879 87.0574 48.0026 89.2663 47.9369 89.5889C47.7834 90.3306 47.6084 90.9226 47.4244 91.3016C47.4174 91.3174 47.4098 91.3317 47.4023 91.346C47.3628 91.2778 47.3161 91.1882 47.2657 91.069C47.0525 90.5719 46.8707 89.8272 46.7301 88.8927C46.4504 87.0391 46.3627 84.6718 46.3696 82.6208C46.375 80.6332 46.5501 78.0961 46.8859 76.0585C47.0558 75.0328 47.2578 74.1797 47.4817 73.5936C47.5289 73.4688 47.5743 73.3652 47.6161 73.28C47.7204 73.5111 47.7328 73.4683 47.8335 73.9326C47.7411 73.3129 47.9418 74.4356 47.8335 73.9326C48.4983 74.0108 49.1159 74.3365 49.723 74.6186C49.5905 74.007 49.3923 72.6943 49.1097 72.2105C48.8164 71.7117 48.2795 71.1706 47.4404 71.2466C46.9086 71.2942 46.5455 71.6315 46.3278 71.9131C46.1006 72.2051 45.9247 72.5703 45.7823 72.9438C45.4936 73.6986 45.2681 74.6926 45.0918 75.7618C44.7372 77.9121 44.5558 80.5477 44.5497 82.6145C44.5435 84.6992 44.6317 87.1738 44.9315 89.1638C45.08 90.1503 45.2894 91.077 45.5947 91.7878C45.8656 92.4185 46.3789 93.2644 47.3364 93.3459Z" fill="url(#paint27_radial_312_503)"/>
<path fill-rule="evenodd" clip-rule="evenodd" d="M47.3364 93.3459C47.8209 93.387 48.2106 93.1767 48.4789 92.9277C48.7333 92.6914 48.9196 92.3877 49.0607 92.0969C49.3444 91.5118 49.5556 90.743 49.718 89.9573C49.8436 89.3343 50.5669 83.8371 50.5687 79.2734C49.8981 79.273 49.618 79.206 48.9592 79.2724C48.9565 85.9838 48.0026 89.2663 47.9369 89.5889C47.7834 90.3306 47.6084 90.9226 47.4244 91.3016C47.4174 91.3174 47.4098 91.3317 47.4023 91.346C47.3628 91.2778 47.3161 91.1882 47.2657 91.069C47.0525 90.5719 46.8707 89.8272 46.7301 88.8927C46.4504 87.0391 46.3627 84.6718 46.3696 82.6208C46.375 80.6332 46.5501 78.0961 46.8859 76.0585C47.0558 75.0328 47.2578 74.1797 47.4817 73.5936C47.5289 73.4688 47.5743 73.3652 47.6161 73.28C47.7204 73.5111 47.8242 73.8537 47.9249 74.318C48.0332 74.821 47.7411 73.3129 47.8335 73.9326C48.4983 74.0108 49.1159 74.3365 49.723 74.6186C49.8589 75.2466 49.6208 73.929 49.723 74.6186C49.5905 74.007 49.3923 72.6943 49.1097 72.2105C48.8164 71.7117 48.2795 71.1706 47.4404 71.2466C46.9086 71.2942 46.5455 71.6315 46.3278 71.9131C46.1006 72.2051 45.9247 72.5703 45.7823 72.9438C45.4936 73.6986 45.2681 74.6926 45.0918 75.7618C44.7372 77.9121 44.5558 80.5477 44.5497 82.6145C44.5435 84.6992 44.6317 87.1738 44.9315 89.1638C45.08 90.1503 45.2894 91.077 45.5947 91.7878C45.8656 92.4185 46.3789 93.2644 47.3364 93.3459Z" fill="url(#paint28_radial_312_503)"/>
<path fill-rule="evenodd" clip-rule="evenodd" d="M47.3364 93.3459C47.8209 93.387 48.2106 93.1767 48.4789 92.9277C48.7333 92.6914 48.9196 92.3877 49.0607 92.0969C49.3444 91.5118 49.5556 90.743 49.718 89.9573C49.8436 89.3343 50.7015 82.6184 50.5687 79.2734C49.7222 79.2729 49.618 79.206 48.9592 79.2724C48.9561 87.1918 48.0026 89.2663 47.9369 89.5889C47.7834 90.3306 47.6084 90.9226 47.4244 91.3016C47.4174 91.3174 47.4098 91.3317 47.4023 91.346C47.3628 91.2778 47.3161 91.1882 47.2657 91.069C47.0525 90.5719 46.8707 89.8272 46.7301 88.8927C46.4504 87.0391 46.3627 84.6718 46.3696 82.6208C46.375 80.6332 46.5501 78.0961 46.8859 76.0585C47.0558 75.0328 47.2578 74.1797 47.4817 73.5936C47.5289 73.4688 47.5743 73.3652 47.6161 73.28C47.7204 73.5111 47.682 73.3109 47.7827 73.7752C47.6903 73.1555 47.891 74.2782 47.7827 73.7752C48.4474 73.8534 49.1159 74.3365 49.723 74.6186C49.8589 75.2466 49.6208 73.929 49.723 74.6186C49.5905 74.007 49.3923 72.6943 49.1097 72.2105C48.8164 71.7117 48.2795 71.1706 47.4404 71.2466C46.9086 71.2942 46.5455 71.6315 46.3278 71.9131C46.1006 72.2051 45.9247 72.5703 45.7823 72.9438C45.4936 73.6986 45.2681 74.6926 45.0918 75.7618C44.7372 77.9121 44.5558 80.5477 44.5497 82.6145C44.5435 84.6992 44.6317 87.1738 44.9315 89.1638C45.08 90.1503 45.2894 91.077 45.5947 91.7878C45.8656 92.4185 46.3789 93.2644 47.3364 93.3459Z" fill="url(#paint29_radial_312_503)"/>
<path fill-rule="evenodd" clip-rule="evenodd" d="M47.3364 93.3459C47.8209 93.387 48.2106 93.1767 48.4789 92.9277C48.7333 92.6914 48.9196 92.3877 49.0607 92.0969C49.3444 91.5118 49.5556 90.743 49.718 89.9573C50.0425 88.2663 50.2971 87.7296 50.5687 79.2734C49.8981 79.273 49.618 79.206 48.9592 79.2724C48.5537 87.0573 48.0026 89.2663 47.9369 89.5889C47.7834 90.3306 47.6084 90.9226 47.4244 91.3016C47.4174 91.3174 47.4098 91.3317 47.4023 91.346C47.3628 91.2778 47.3161 91.1882 47.2657 91.069C47.0525 90.5719 46.8707 89.8272 46.7301 88.8927C46.4504 87.0391 46.3627 84.6718 46.3696 82.6208C46.375 80.6332 46.5501 78.0961 46.8859 76.0585C47.0558 75.0328 47.2578 74.1797 47.4817 73.5936C47.5289 73.4688 47.5743 73.3652 47.6161 73.28C47.7204 73.5111 47.7328 73.4683 47.8335 73.9326C47.7411 73.3129 47.9418 74.4356 47.8335 73.9326C48.4983 74.0108 49.1177 74.0467 49.7248 74.3288C49.8607 74.9568 49.6226 73.6392 49.7248 74.3288C49.5922 73.7172 49.3923 72.6943 49.1097 72.2105C48.8164 71.7117 48.2795 71.1706 47.4404 71.2466C46.9086 71.2942 46.5455 71.6315 46.3278 71.9131C46.1006 72.2051 45.9247 72.5703 45.7823 72.9438C45.4936 73.6986 45.2681 74.6926 45.0918 75.7618C44.7372 77.9121 44.5558 80.5476 44.5497 82.6145C44.5435 84.6992 44.6317 87.1738 44.9315 89.1638C45.08 90.1503 45.2894 91.077 45.5947 91.7878C45.8656 92.4185 46.3789 93.2644 47.3364 93.3459Z" fill="url(#paint30_radial_312_503)"/>
<g filter="url(#filter12_f_312_503)">
<path d="M48.2772 92.3844C48.3016 92.3448 48.3092 92.2972 48.2985 92.2519C48.2878 92.2066 48.2595 92.1675 48.2199 92.1431C48.1803 92.1187 48.1327 92.111 48.0874 92.1217C48.0422 92.1325 48.0031 92.1607 47.9787 92.2003L48.2772 92.3844ZM45.0447 81.9996C44.979 83.5828 45.0745 87.8123 45.6962 90.7358L46.0381 90.6631C45.4244 87.7798 45.3297 83.5821 45.3947 82.0143L45.0447 81.9996ZM45.6962 90.7358C45.9557 91.9563 46.4328 92.6014 46.9608 92.8203C47.4987 93.0433 48.0229 92.7964 48.2772 92.3844L47.9787 92.2003C47.8018 92.4881 47.4512 92.645 47.0944 92.4965C46.7273 92.3444 46.2895 91.8434 46.0381 90.6631L45.6962 90.7358Z" fill="url(#paint31_linear_312_503)"/>
</g>
<path fill-rule="evenodd" clip-rule="evenodd" d="M47.3364 93.3459C47.8209 93.387 48.2106 93.1767 48.4789 92.9277C48.7333 92.6914 48.9196 92.3877 49.0607 92.0969C49.3444 91.5118 49.5556 90.743 49.718 89.9573C50.0425 88.2663 50.2971 87.7296 50.5687 79.2734C49.8981 79.273 49.618 79.206 48.9592 79.2724C48.5537 87.0573 48.0026 89.2663 47.9369 89.5889C47.7834 90.3306 47.6084 90.9226 47.4244 91.3016C47.4174 91.3174 47.4098 91.3317 47.4023 91.346C47.3628 91.2778 47.3161 91.1882 47.2657 91.069C47.0525 90.5719 46.8707 89.8272 46.7301 88.8927C46.4504 87.0391 46.3627 84.6718 46.3696 82.6208C46.375 80.6332 46.5501 78.0961 46.8859 76.0585C47.0558 75.0328 47.2578 74.1797 47.4817 73.5936C47.5289 73.4688 47.5743 73.3652 47.6161 73.28C47.7204 73.5111 47.6344 73.1294 47.7351 73.5938C47.6427 72.9741 47.8434 74.0967 47.7351 73.5938C48.3999 73.6719 49.1177 74.0467 49.7248 74.3288C49.8607 74.9568 49.6226 73.6392 49.7248 74.3288C49.5922 73.7172 49.3923 72.6943 49.1097 72.2105C48.8164 71.7117 48.2795 71.1706 47.4404 71.2466C46.9086 71.2942 46.5455 71.6315 46.3278 71.9131C46.1006 72.2051 45.9247 72.5703 45.7823 72.9438C45.4936 73.6986 45.2681 74.6926 45.0918 75.7618C44.7372 77.9121 44.5558 80.5476 44.5497 82.6145C44.5435 84.6992 44.6317 87.1738 44.9315 89.1638C45.08 90.1503 45.2894 91.077 45.5947 91.7878C45.8656 92.4185 46.3789 93.2644 47.3364 93.3459Z" fill="url(#paint32_radial_312_503)"/>
</g>
<path d="M51.5297 73.5315C50.8557 75.145 49.0013 75.9064 47.3879 75.2324" stroke="#E4E4DE"/>
<path d="M47.5014 90.2127C48.8372 90.2787 49.127 90.2787 49.7066 91.7277" stroke="url(#paint33_linear_312_503)" stroke-width="2"/>
<defs>
<filter id="filter0_dddddd_312_503" x="0" y="0" width="102.679" height="138.478" filterUnits="userSpaceOnUse" color-interpolation-filters="sRGB">
<feFlood flood-opacity="0" result="BackgroundImageFix"/>
<feColorMatrix in="SourceAlpha" type="matrix" values="0 0 0 0 0 0 0 0 0 0 0 0 0 0 0 0 0 0 127 0" result="hardAlpha"/>
<feOffset/>
<feColorMatrix type="matrix" values="0 0 0 0 0 0 0 0 0 0 0 0 0 0 0 0 0 0 0.1 0"/>
<feBlend mode="normal" in2="BackgroundImageFix" result="effect1_dropShadow_312_503"/>
<feColorMatrix in="SourceAlpha" type="matrix" values="0 0 0 0 0 0 0 0 0 0 0 0 0 0 0 0 0 0 127 0" result="hardAlpha"/>
<feOffset dy="3"/>
<feGaussianBlur stdDeviation="3"/>
<feColorMatrix type="matrix" values="0 0 0 0 0 0 0 0 0 0 0 0 0 0 0 0 0 0 0.1 0"/>
<feBlend mode="normal" in2="effect1_dropShadow_312_503" result="effect2_dropShadow_312_503"/>
<feColorMatrix in="SourceAlpha" type="matrix" values="0 0 0 0 0 0 0 0 0 0 0 0 0 0 0 0 0 0 127 0" result="hardAlpha"/>
<feOffset dy="11"/>
<feGaussianBlur stdDeviation="5.5"/>
<feColorMatrix type="matrix" values="0 0 0 0 0 0 0 0 0 0 0 0 0 0 0 0 0 0 0.09 0"/>
<feBlend mode="normal" in2="effect2_dropShadow_312_503" result="effect3_dropShadow_312_503"/>
<feColorMatrix in="SourceAlpha" type="matrix" values="0 0 0 0 0 0 0 0 0 0 0 0 0 0 0 0 0 0 127 0" result="hardAlpha"/>
<feOffset dy="24"/>
<feGaussianBlur stdDeviation="7"/>
<feColorMatrix type="matrix" values="0 0 0 0 0 0 0 0 0 0 0 0 0 0 0 0 0 0 0.05 0"/>
<feBlend mode="normal" in2="effect3_dropShadow_312_503" result="effect4_dropShadow_312_503"/>
<feColorMatrix in="SourceAlpha" type="matrix" values="0 0 0 0 0 0 0 0 0 0 0 0 0 0 0 0 0 0 127 0" result="hardAlpha"/>
<feOffset dy="42"/>
<feGaussianBlur stdDeviation="8.5"/>
<feColorMatrix type="matrix" values="0 0 0 0 0 0 0 0 0 0 0 0 0 0 0 0 0 0 0.01 0"/>
<feBlend mode="normal" in2="effect4_dropShadow_312_503" result="effect5_dropShadow_312_503"/>
<feColorMatrix in="SourceAlpha" type="matrix" values="0 0 0 0 0 0 0 0 0 0 0 0 0 0 0 0 0 0 127 0" result="hardAlpha"/>
<feOffset dx="-10" dy="-10"/>
<feGaussianBlur stdDeviation="10"/>
<feComposite in2="hardAlpha" operator="out"/>
<feColorMatrix type="matrix" values="0 0 0 0 1 0 0 0 0 1 0 0 0 0 1 0 0 0 0.5 0"/>
<feBlend mode="normal" in2="effect5_dropShadow_312_503" result="effect6_dropShadow_312_503"/>
<feBlend mode="normal" in="SourceGraphic" in2="effect6_dropShadow_312_503" result="shape"/>
</filter>
<filter id="filter1_i_312_503" x="45.6493" y="69.413" width="7.79602" height="6.29602" filterUnits="userSpaceOnUse" color-interpolation-filters="sRGB">
<feFlood flood-opacity="0" result="BackgroundImageFix"/>
<feBlend mode="normal" in="SourceGraphic" in2="BackgroundImageFix" result="shape"/>
<feColorMatrix in="SourceAlpha" type="matrix" values="0 0 0 0 0 0 0 0 0 0 0 0 0 0 0 0 0 0 127 0" result="hardAlpha"/>
<feMorphology radius="1" operator="erode" in="SourceAlpha" result="effect1_innerShadow_312_503"/>
<feOffset dx="2" dy="0.5"/>
<feGaussianBlur stdDeviation="2"/>
<feComposite in2="hardAlpha" operator="arithmetic" k2="-1" k3="1"/>
<feColorMatrix type="matrix" values="0 0 0 0 0 0 0 0 0 0 0 0 0 0 0 0 0 0 0.85 0"/>
<feBlend mode="normal" in2="shape" result="effect1_innerShadow_312_503"/>
</filter>
<filter id="filter2_dii_312_503" x="36.183" y="97.1481" width="21.1866" height="21.1954" filterUnits="userSpaceOnUse" color-interpolation-filters="sRGB">
<feFlood flood-opacity="0" result="BackgroundImageFix"/>
<feColorMatrix in="SourceAlpha" type="matrix" values="0 0 0 0 0 0 0 0 0 0 0 0 0 0 0 0 0 0 127 0" result="hardAlpha"/>
<feOffset dy="3"/>
<feGaussianBlur stdDeviation="2"/>
<feComposite in2="hardAlpha" operator="out"/>
<feColorMatrix type="matrix" values="0 0 0 0 0 0 0 0 0 0 0 0 0 0 0 0 0 0 0.25 0"/>
<feBlend mode="normal" in2="BackgroundImageFix" result="effect1_dropShadow_312_503"/>
<feBlend mode="normal" in="SourceGraphic" in2="effect1_dropShadow_312_503" result="shape"/>
<feColorMatrix in="SourceAlpha" type="matrix" values="0 0 0 0 0 0 0 0 0 0 0 0 0 0 0 0 0 0 127 0" result="hardAlpha"/>
<feOffset dy="1"/>
<feGaussianBlur stdDeviation="2"/>
<feComposite in2="hardAlpha" operator="arithmetic" k2="-1" k3="1"/>
<feColorMatrix type="matrix" values="0 0 0 0 0 0 0 0 0 0 0 0 0 0 0 0 0 0 0.25 0"/>
<feBlend mode="normal" in2="shape" result="effect2_innerShadow_312_503"/>
<feColorMatrix in="SourceAlpha" type="matrix" values="0 0 0 0 0 0 0 0 0 0 0 0 0 0 0 0 0 0 127 0" result="hardAlpha"/>
<feOffset dy="-1"/>
<feGaussianBlur stdDeviation="2"/>
<feComposite in2="hardAlpha" operator="arithmetic" k2="-1" k3="1"/>
<feColorMatrix type="matrix" values="0 0 0 0 0 0 0 0 0 0 0 0 0 0 0 0 0 0 0.25 0"/>
<feBlend mode="normal" in2="effect2_innerShadow_312_503" result="effect3_innerShadow_312_503"/>
</filter>
<filter id="filter3_iii_312_503" x="41.3306" y="100.047" width="11.1183" height="10.1158" filterUnits="userSpaceOnUse" color-interpolation-filters="sRGB">
<feFlood flood-opacity="0" result="BackgroundImageFix"/>
<feBlend mode="normal" in="SourceGraphic" in2="BackgroundImageFix" result="shape"/>
<feColorMatrix in="SourceAlpha" type="matrix" values="0 0 0 0 0 0 0 0 0 0 0 0 0 0 0 0 0 0 127 0" result="hardAlpha"/>
<feOffset dy="-0.5"/>
<feGaussianBlur stdDeviation="1.5"/>
<feComposite in2="hardAlpha" operator="arithmetic" k2="-1" k3="1"/>
<feColorMatrix type="matrix" values="0 0 0 0 0.772549 0 0 0 0 0.494118 0 0 0 0 0.282353 0 0 0 1 0"/>
<feBlend mode="normal" in2="shape" result="effect1_innerShadow_312_503"/>
<feColorMatrix in="SourceAlpha" type="matrix" values="0 0 0 0 0 0 0 0 0 0 0 0 0 0 0 0 0 0 127 0" result="hardAlpha"/>
<feOffset dx="-1.25" dy="1.25"/>
<feGaussianBlur stdDeviation="0.75"/>
<feComposite in2="hardAlpha" operator="arithmetic" k2="-1" k3="1"/>
<feColorMatrix type="matrix" values="0 0 0 0 1 0 0 0 0 0.952941 0 0 0 0 0.286275 0 0 0 1 0"/>
<feBlend mode="normal" in2="effect1_innerShadow_312_503" result="effect2_innerShadow_312_503"/>
<feColorMatrix in="SourceAlpha" type="matrix" values="0 0 0 0 0 0 0 0 0 0 0 0 0 0 0 0 0 0 127 0" result="hardAlpha"/>
<feOffset dx="1.5" dy="-0.5"/>
<feGaussianBlur stdDeviation="0.75"/>
<feComposite in2="hardAlpha" operator="arithmetic" k2="-1" k3="1"/>
<feColorMatrix type="matrix" values="0 0 0 0 0.698039 0 0 0 0 0.537255 0 0 0 0 0.192157 0 0 0 1 0"/>
<feBlend mode="normal" in2="effect2_innerShadow_312_503" result="effect3_innerShadow_312_503"/>
</filter>
<filter id="filter4_i_312_503" x="46.4764" y="98.7478" width="0.909048" height="0.909689" filterUnits="userSpaceOnUse" color-interpolation-filters="sRGB">
<feFlood flood-opacity="0" result="BackgroundImageFix"/>
<feBlend mode="normal" in="SourceGraphic" in2="BackgroundImageFix" result="shape"/>
<feColorMatrix in="SourceAlpha" type="matrix" values="0 0 0 0 0 0 0 0 0 0 0 0 0 0 0 0 0 0 127 0" result="hardAlpha"/>
<feMorphology radius="0.1" operator="erode" in="SourceAlpha" result="effect1_innerShadow_312_503"/>
<feOffset dx="0.01" dy="0.01"/>
<feGaussianBlur stdDeviation="1"/>
<feComposite in2="hardAlpha" operator="arithmetic" k2="-1" k3="1"/>
<feColorMatrix type="matrix" values="0 0 0 0 0 0 0 0 0 0 0 0 0 0 0 0 0 0 0.85 0"/>
<feBlend mode="normal" in2="shape" result="effect1_innerShadow_312_503"/>
</filter>
<filter id="filter5_f_312_503" x="39.2821" y="97.2478" width="14.9879" height="14.9958" filterUnits="userSpaceOnUse" color-interpolation-filters="sRGB">
<feFlood flood-opacity="0" result="BackgroundImageFix"/>
<feBlend mode="normal" in="SourceGraphic" in2="BackgroundImageFix" result="shape"/>
<feGaussianBlur stdDeviation="0.75" result="effect1_foregroundBlur_312_503"/>
</filter>
<filter id="filter6_f_312_503" x="41.9633" y="87.1991" width="10.7922" height="11.3756" filterUnits="userSpaceOnUse" color-interpolation-filters="sRGB">
<feFlood flood-opacity="0" result="BackgroundImageFix"/>
<feBlend mode="normal" in="SourceGraphic" in2="BackgroundImageFix" result="shape"/>
<feGaussianBlur stdDeviation="1" result="effect1_foregroundBlur_312_503"/>
</filter>
<filter id="filter7_f_312_503" x="45.3749" y="96.0113" width="2.70154" height="4.39758" filterUnits="userSpaceOnUse" color-interpolation-filters="sRGB">
<feFlood flood-opacity="0" result="BackgroundImageFix"/>
<feBlend mode="normal" in="SourceGraphic" in2="BackgroundImageFix" result="shape"/>
<feGaussianBlur stdDeviation="0.5" result="effect1_foregroundBlur_312_503"/>
</filter>
<filter id="filter8_i_312_503" x="46.8069" y="88.865" width="4.44971" height="5.05807" filterUnits="userSpaceOnUse" color-interpolation-filters="sRGB">
<feFlood flood-opacity="0" result="BackgroundImageFix"/>
<feBlend mode="normal" in="SourceGraphic" in2="BackgroundImageFix" result="shape"/>
<feColorMatrix in="SourceAlpha" type="matrix" values="0 0 0 0 0 0 0 0 0 0 0 0 0 0 0 0 0 0 127 0" result="hardAlpha"/>
<feOffset dy="1"/>
<feGaussianBlur stdDeviation="2"/>
<feComposite in2="hardAlpha" operator="arithmetic" k2="-1" k3="1"/>
<feColorMatrix type="matrix" values="0 0 0 0 0.937255 0 0 0 0 0.639216 0 0 0 0 0.188235 0 0 0 1 0"/>
<feBlend mode="normal" in2="shape" result="effect1_innerShadow_312_503"/>
</filter>
<filter id="filter9_i_312_503" x="47.1338" y="73.0394" width="3.28955" height="3.23349" filterUnits="userSpaceOnUse" color-interpolation-filters="sRGB">
<feFlood flood-opacity="0" result="BackgroundImageFix"/>
<feBlend mode="normal" in="SourceGraphic" in2="BackgroundImageFix" result="shape"/>
<feColorMatrix in="SourceAlpha" type="matrix" values="0 0 0 0 0 0 0 0 0 0 0 0 0 0 0 0 0 0 127 0" result="hardAlpha"/>
<feOffset dy="1"/>
<feGaussianBlur stdDeviation="2"/>
<feComposite in2="hardAlpha" operator="arithmetic" k2="-1" k3="1"/>
<feColorMatrix type="matrix" values="0 0 0 0 0.937255 0 0 0 0 0.639216 0 0 0 0 0.188235 0 0 0 1 0"/>
<feBlend mode="normal" in2="shape" result="effect1_innerShadow_312_503"/>
</filter>
<filter id="filter10_ddddd_312_503" x="37.3773" y="70.2105" width="19.5818" height="46.6808" filterUnits="userSpaceOnUse" color-interpolation-filters="sRGB">
<feFlood flood-opacity="0" result="BackgroundImageFix"/>
<feColorMatrix in="SourceAlpha" type="matrix" values="0 0 0 0 0 0 0 0 0 0 0 0 0 0 0 0 0 0 127 0" result="hardAlpha"/>
<feOffset/>
<feColorMatrix type="matrix" values="0 0 0 0 0 0 0 0 0 0 0 0 0 0 0 0 0 0 0.1 0"/>
<feBlend mode="normal" in2="BackgroundImageFix" result="effect1_dropShadow_312_503"/>
<feColorMatrix in="SourceAlpha" type="matrix" values="0 0 0 0 0 0 0 0 0 0 0 0 0 0 0 0 0 0 127 0" result="hardAlpha"/>
<feOffset dy="1"/>
<feGaussianBlur stdDeviation="1"/>
<feColorMatrix type="matrix" values="0 0 0 0 0 0 0 0 0 0 0 0 0 0 0 0 0 0 0.1 0"/>
<feBlend mode="normal" in2="effect1_dropShadow_312_503" result="effect2_dropShadow_312_503"/>
<feColorMatrix in="SourceAlpha" type="matrix" values="0 0 0 0 0 0 0 0 0 0 0 0 0 0 0 0 0 0 127 0" result="hardAlpha"/>
<feOffset dy="4"/>
<feGaussianBlur stdDeviation="2"/>
<feColorMatrix type="matrix" values="0 0 0 0 0 0 0 0 0 0 0 0 0 0 0 0 0 0 0.09 0"/>
<feBlend mode="normal" in2="effect2_dropShadow_312_503" result="effect3_dropShadow_312_503"/>
<feColorMatrix in="SourceAlpha" type="matrix" values="0 0 0 0 0 0 0 0 0 0 0 0 0 0 0 0 0 0 127 0" result="hardAlpha"/>
<feOffset dy="8"/>
<feGaussianBlur stdDeviation="2.5"/>
<feColorMatrix type="matrix" values="0 0 0 0 0 0 0 0 0 0 0 0 0 0 0 0 0 0 0.05 0"/>
<feBlend mode="normal" in2="effect3_dropShadow_312_503" result="effect4_dropShadow_312_503"/>
<feColorMatrix in="SourceAlpha" type="matrix" values="0 0 0 0 0 0 0 0 0 0 0 0 0 0 0 0 0 0 127 0" result="hardAlpha"/>
<feOffset dy="14"/>
<feGaussianBlur stdDeviation="3"/>
<feColorMatrix type="matrix" values="0 0 0 0 0 0 0 0 0 0 0 0 0 0 0 0 0 0 0.01 0"/>
<feBlend mode="normal" in2="effect4_dropShadow_312_503" result="effect5_dropShadow_312_503"/>
<feBlend mode="normal" in="SourceGraphic" in2="effect5_dropShadow_312_503" result="shape"/>
</filter>
<filter id="filter11_i_312_503" x="43.3773" y="89.673" width="7.58179" height="8.21838" filterUnits="userSpaceOnUse" color-interpolation-filters="sRGB">
<feFlood flood-opacity="0" result="BackgroundImageFix"/>
<feBlend mode="normal" in="SourceGraphic" in2="BackgroundImageFix" result="shape"/>
<feColorMatrix in="SourceAlpha" type="matrix" values="0 0 0 0 0 0 0 0 0 0 0 0 0 0 0 0 0 0 127 0" result="hardAlpha"/>
<feOffset dy="1"/>
<feGaussianBlur stdDeviation="2"/>
<feComposite in2="hardAlpha" operator="arithmetic" k2="-1" k3="1"/>
<feColorMatrix type="matrix" values="0 0 0 0 0.937255 0 0 0 0 0.639216 0 0 0 0 0.188235 0 0 0 1 0"/>
<feBlend mode="normal" in2="shape" result="effect1_innerShadow_312_503"/>
</filter>
<filter id="filter12_f_312_503" x="44.027" y="80.9996" width="5.27625" height="12.9047" filterUnits="userSpaceOnUse" color-interpolation-filters="sRGB">
<feFlood flood-opacity="0" result="BackgroundImageFix"/>
<feBlend mode="normal" in="SourceGraphic" in2="BackgroundImageFix" result="shape"/>
<feGaussianBlur stdDeviation="0.5" result="effect1_foregroundBlur_312_503"/>
</filter>
<radialGradient id="paint0_radial_312_503" cx="0" cy="0" r="1" gradientUnits="userSpaceOnUse" gradientTransform="translate(30 49.4202) rotate(-0.54207) scale(26.1492 41.6302)">
<stop stop-color="#91BECA"/>
<stop offset="1" stop-color="#91BECA" stop-opacity="0"/>
</radialGradient>
<radialGradient id="paint1_radial_312_503" cx="0" cy="0" r="1" gradientUnits="userSpaceOnUse" gradientTransform="translate(53.4457 42.8334) rotate(83.163) scale(36.9072 24.1257)">
<stop stop-color="#A67ABE"/>
<stop offset="1" stop-color="#A67ABE" stop-opacity="0"/>
</radialGradient>
<radialGradient id="paint2_radial_312_503" cx="0" cy="0" r="1" gradientUnits="userSpaceOnUse" gradientTransform="translate(65.9462 44.5033) rotate(89.9363) scale(34.9749 20.7736)">
<stop stop-color="#FD747C"/>
<stop offset="1" stop-color="#FD747C" stop-opacity="0"/>
</radialGradient>
<radialGradient id="paint3_radial_312_503" cx="0" cy="0" r="1" gradientUnits="userSpaceOnUse" gradientTransform="translate(81.5183 42.4623) rotate(86.314) scale(26.3088 18.8072)">
<stop stop-color="#FFE072"/>
<stop offset="1" stop-color="#FFE072" stop-opacity="0"/>
</radialGradient>
<radialGradient id="paint4_radial_312_503" cx="0" cy="0" r="1" gradientUnits="userSpaceOnUse" gradientTransform="translate(85.6787 79.4781) rotate(-167.717) scale(28.4915 38.4557)">
<stop stop-color="#FFB472"/>
<stop offset="0.411458" stop-color="#FFB472"/>
<stop offset="1" stop-color="#FFB472" stop-opacity="0"/>
</radialGradient>
<radialGradient id="paint5_radial_312_503" cx="0" cy="0" r="1" gradientUnits="userSpaceOnUse" gradientTransform="translate(50.8406 79.4781) rotate(-118.198) scale(44.1056 55.0893)">
<stop stop-color="#B5BD9D"/>
<stop offset="0.489583" stop-color="#B5BD9D"/>
<stop offset="1" stop-color="#B5BD9D" stop-opacity="0"/>
</radialGradient>
<radialGradient id="paint6_radial_312_503" cx="0" cy="0" r="1" gradientUnits="userSpaceOnUse" gradientTransform="translate(49.3131 102.637) rotate(132.92) scale(5.99017 5.92777)">
<stop stop-color="#FAC632"/>
<stop offset="1" stop-color="#F7C632"/>
</radialGradient>
<radialGradient id="paint7_radial_312_503" cx="0" cy="0" r="1" gradientUnits="userSpaceOnUse" gradientTransform="translate(46.7649 104.73) rotate(90) scale(4.18289 4.1842)">
<stop stop-color="#DDBA38"/>
<stop offset="1" stop-color="#DDBA38" stop-opacity="0"/>
</radialGradient>
<radialGradient id="paint8_radial_312_503" cx="0" cy="0" r="1" gradientUnits="userSpaceOnUse" gradientTransform="translate(44.0738 102.971) rotate(74.0647) scale(0.679276 2.26565)">
<stop stop-color="#DDBA38"/>
<stop offset="1" stop-color="#DDBA38" stop-opacity="0"/>
</radialGradient>
<radialGradient id="paint9_radial_312_503" cx="0" cy="0" r="1" gradientUnits="userSpaceOnUse" gradientTransform="translate(42.5804 103.402) rotate(16.0929) scale(1.17818 1.17999)">
<stop stop-color="#B5953A"/>
<stop offset="1" stop-color="#B5953A" stop-opacity="0"/>
</radialGradient>
<radialGradient id="paint10_radial_312_503" cx="0" cy="0" r="1" gradientUnits="userSpaceOnUse" gradientTransform="translate(44.6216 109.187) rotate(-58.513) scale(0.848021 0.848594)">
<stop stop-color="#C47E42"/>
<stop offset="1" stop-color="#C47E42" stop-opacity="0"/>
</radialGradient>
<radialGradient id="paint11_radial_312_503" cx="0" cy="0" r="1" gradientUnits="userSpaceOnUse" gradientTransform="translate(51.2656 103.449) rotate(150.735) scale(0.668072 0.878739)">
<stop stop-color="#FFF246"/>
<stop offset="1" stop-color="#FFF246" stop-opacity="0"/>
</radialGradient>
<linearGradient id="paint12_linear_312_503" x1="47.2641" y1="97.2042" x2="45.478" y2="98.0365" gradientUnits="userSpaceOnUse">
<stop stop-color="#E6AF22"/>
<stop offset="1" stop-color="#FFFB4B"/>
</linearGradient>
<radialGradient id="paint13_radial_312_503" cx="0" cy="0" r="1" gradientUnits="userSpaceOnUse" gradientTransform="translate(47.0757 98.366) rotate(87.7575) scale(1.14416 0.32386)">
<stop offset="0.101" stop-color="#F39D2B"/>
<stop offset="1" stop-color="#F39D2B" stop-opacity="0"/>
</radialGradient>
<radialGradient id="paint14_radial_312_503" cx="0" cy="0" r="1" gradientUnits="userSpaceOnUse" gradientTransform="translate(47.4271 98.242) rotate(102.677) scale(1.06541 0.542553)">
<stop stop-color="#F19C20"/>
<stop offset="1" stop-color="#F19C20" stop-opacity="0"/>
</radialGradient>
<radialGradient id="paint15_radial_312_503" cx="0" cy="0" r="1" gradientUnits="userSpaceOnUse" gradientTransform="translate(46.596 94.7583) rotate(40.7606) scale(0.666074 2.70856)">
<stop stop-color="#D08E28"/>
<stop offset="1" stop-color="#D08E28" stop-opacity="0"/>
</radialGradient>
<radialGradient id="paint16_radial_312_503" cx="0" cy="0" r="1" gradientUnits="userSpaceOnUse" gradientTransform="translate(46.9785 95.2146) rotate(-74.0962) scale(0.336833 0.0817389)">
<stop stop-color="#E9C441"/>
<stop offset="1" stop-color="#E9AF41" stop-opacity="0"/>
</radialGradient>
<radialGradient id="paint17_radial_312_503" cx="0" cy="0" r="1" gradientUnits="userSpaceOnUse" gradientTransform="translate(47.203 95.7571) rotate(-99.5779) scale(0.533412 0.139469)">
<stop stop-color="#F1D338"/>
<stop offset="1" stop-color="#F1B338" stop-opacity="0"/>
</radialGradient>
<radialGradient id="paint18_radial_312_503" cx="0" cy="0" r="1" gradientUnits="userSpaceOnUse" gradientTransform="translate(46.9106 98.5342) rotate(-96.8547) scale(0.90521 0.255628)">
<stop offset="0.154" stop-color="#ECA53B"/>
<stop offset="1" stop-color="#ECA53B" stop-opacity="0"/>
</radialGradient>
<radialGradient id="paint19_radial_312_503" cx="0" cy="0" r="1" gradientUnits="userSpaceOnUse" gradientTransform="translate(46.9106 98.5342) rotate(-96.8547) scale(0.90521 0.255628)">
<stop offset="0.154" stop-color="#ECA53B"/>
<stop offset="1" stop-color="#ECA53B" stop-opacity="0"/>
</radialGradient>
<radialGradient id="paint20_radial_312_503" cx="0" cy="0" r="1" gradientUnits="userSpaceOnUse" gradientTransform="translate(46.9106 98.5342) rotate(-96.8547) scale(0.90521 0.255628)">
<stop offset="0.154" stop-color="#ECA53B"/>
<stop offset="1" stop-color="#ECA53B" stop-opacity="0"/>
</radialGradient>
<linearGradient id="paint21_linear_312_503" x1="46.3348" y1="98.2241" x2="46.364" y2="96.8132" gradientUnits="userSpaceOnUse">
<stop stop-color="#FFEF33"/>
<stop offset="1" stop-color="#FFEF33" stop-opacity="0"/>
</linearGradient>
<linearGradient id="paint22_linear_312_503" x1="47.3758" y1="98.298" x2="47.3758" y2="99.0478" gradientUnits="userSpaceOnUse">
<stop stop-color="#B5B4B4"/>
<stop offset="0.22194" stop-color="#C6C4C4"/>
<stop offset="1" stop-color="#E9E8E7"/>
</linearGradient>
<linearGradient id="paint23_linear_312_503" x1="47.8219" y1="98.3493" x2="47.5293" y2="99.1668" gradientUnits="userSpaceOnUse">
<stop stop-color="#B1AFAF"/>
<stop offset="0.420916" stop-color="#C6C4C4"/>
<stop offset="0.632852" stop-color="#D3D2D2"/>
<stop offset="1" stop-color="#DDDCDB"/>
</linearGradient>
<linearGradient id="paint24_linear_312_503" x1="49.0049" y1="83.0015" x2="41.0861" y2="86.7309" gradientUnits="userSpaceOnUse">
<stop stop-color="#E6AF22"/>
<stop offset="1" stop-color="#FFFB4B"/>
</linearGradient>
<radialGradient id="paint25_radial_312_503" cx="0" cy="0" r="1" gradientUnits="userSpaceOnUse" gradientTransform="translate(48.2162 88.2231) rotate(87.0877) scale(5.17636 1.45902)">
<stop offset="0.101" stop-color="#F39D2B"/>
<stop offset="1" stop-color="#F39D2B" stop-opacity="0"/>
</radialGradient>
<radialGradient id="paint26_radial_312_503" cx="0" cy="0" r="1" gradientUnits="userSpaceOnUse" gradientTransform="translate(49.7974 87.7113) rotate(102.105) scale(4.76905 2.47041)">
<stop stop-color="#F19C20"/>
<stop offset="1" stop-color="#F19C20" stop-opacity="0"/>
</radialGradient>
<radialGradient id="paint27_radial_312_503" cx="0" cy="0" r="1" gradientUnits="userSpaceOnUse" gradientTransform="translate(45.8583 71.8643) rotate(41.4561) scale(3.0698 11.9782)">
<stop stop-color="#D08E28"/>
<stop offset="1" stop-color="#D08E28" stop-opacity="0"/>
</radialGradient>
<radialGradient id="paint28_radial_312_503" cx="0" cy="0" r="1" gradientUnits="userSpaceOnUse" gradientTransform="translate(47.6094 73.9765) rotate(-74.605) scale(1.50458 0.372968)">
<stop stop-color="#E9C441"/>
<stop offset="1" stop-color="#E9AF41" stop-opacity="0"/>
</radialGradient>
<radialGradient id="paint29_radial_312_503" cx="0" cy="0" r="1" gradientUnits="userSpaceOnUse" gradientTransform="translate(48.6519 76.4574) rotate(-100.179) scale(2.42575 0.625082)">
<stop stop-color="#F1D338"/>
<stop offset="1" stop-color="#F1B338" stop-opacity="0"/>
</radialGradient>
<radialGradient id="paint30_radial_312_503" cx="0" cy="0" r="1" gradientUnits="userSpaceOnUse" gradientTransform="translate(47.4797 88.9605) rotate(-97.4898) scale(4.10881 1.14785)">
<stop offset="0.154" stop-color="#ECA53B"/>
<stop offset="1" stop-color="#ECA53B" stop-opacity="0"/>
</radialGradient>
<linearGradient id="paint31_linear_312_503" x1="44.8957" y1="87.4761" x2="45.2174" y2="81.1148" gradientUnits="userSpaceOnUse">
<stop stop-color="#FFEF33"/>
<stop offset="1" stop-color="#FFEF33" stop-opacity="0"/>
</linearGradient>
<radialGradient id="paint32_radial_312_503" cx="0" cy="0" r="1" gradientUnits="userSpaceOnUse" gradientTransform="translate(47.4797 88.9605) rotate(-97.4898) scale(4.10881 1.14785)">
<stop offset="0.154" stop-color="#ECA53B"/>
<stop offset="1" stop-color="#ECA53B" stop-opacity="0"/>
</radialGradient>
<linearGradient id="paint33_linear_312_503" x1="47.4066" y1="90.5967" x2="49.8376" y2="91.1969" gradientUnits="userSpaceOnUse">
<stop stop-color="#F0AF31"/>
<stop offset="1" stop-color="#F1AE32"/>
</linearGradient>
</defs>
</svg>
